M48
; DRILL file {KiCad (5.1.5)-3} date 28/10/2020 14:02:05
; FORMAT={-:-/ absolute / inch / decimal}
; #@! TF.CreationDate,2020-10-28T14:02:05+01:00
; #@! TF.GenerationSoftware,Kicad,Pcbnew,(5.1.5)-3
; #@! TF.FileFunction,Plated,1,2,PTH
FMAT,2
INCH
T1C0.0157
T2C0.0394
%
G90
G05
T1
X1.6Y-1.5
X1.6Y-1.9
X1.6Y-2.3
X1.6Y-2.7
X1.6Y-3.1
X1.6Y-3.5
X1.6Y-3.9
X1.6Y-5.3
X1.6Y-5.7
X1.6Y-6.1
X1.6Y-6.5
X1.6Y-6.9
X1.6Y-7.3
X1.6Y-7.7
X1.9Y-0.7
X1.9Y-1.3
X1.9Y-8.5
X2.175Y-4.625
X2.2Y-1.5
X2.2Y-1.9
X2.2Y-2.3
X2.2Y-2.7
X2.2Y-3.1
X2.2Y-3.5
X2.2Y-3.9
X2.2Y-5.3
X2.2Y-5.7
X2.2Y-6.1
X2.2Y-6.5
X2.2Y-6.9
X2.2Y-7.3
X2.2Y-7.7
X2.225Y-4.575
X2.3Y-0.7
X2.3Y-1.3
X2.3Y-4.9
X2.3Y-8.5
X2.5Y-4.3
X2.625Y-4.65
X2.7Y-0.7
X2.7Y-4.9
X2.7Y-7.9
X2.7Y-8.5
X2.9Y-4.3
X3.1Y-0.7
X3.1Y-1.3
X3.1Y-4.9
X3.1Y-7.9
X3.1Y-8.5
X3.3Y-4.3
X3.5Y-0.7
X3.5Y-1.3
X3.5Y-4.9
X3.5Y-7.9
X3.5Y-8.5
X3.7Y-4.3
X3.9Y-0.7
X3.9Y-4.9
X3.9Y-7.9
X3.9Y-8.5
X4.1Y-4.3
X4.3Y-0.7
X4.3Y-1.3
X4.3Y-4.9
X4.3Y-7.9
X4.3Y-8.5
X4.5Y-4.3
X4.7Y-0.7
X4.7Y-1.3
X4.7Y-4.9
X4.7Y-7.9
X4.7Y-8.5
X4.9Y-4.3
X5.1Y-0.7
X5.1Y-4.9
X5.1Y-7.9
X5.1Y-8.5
X5.2Y-1.5
X5.2Y-1.9
X5.2Y-2.3
X5.2Y-2.7
X5.2Y-3.1
X5.2Y-3.5
X5.2Y-3.9
X5.2Y-4.3
X5.2Y-5.1
X5.2Y-5.5
X5.2Y-5.9
X5.2Y-6.3
X5.2Y-6.7
X5.2Y-7.1
X5.2Y-7.5
X5.225Y-0.95
X5.3Y-4.45
X5.4Y-1.15
X5.45Y-0.9
X5.5Y-0.7
X5.5Y-8.5
X5.8Y-1.5
X5.8Y-1.9
X5.8Y-2.3
X5.8Y-2.7
X5.8Y-3.1
X5.8Y-3.5
X5.8Y-3.9
X5.8Y-5.5
X5.8Y-5.9
X5.8Y-6.3
X5.8Y-6.7
X5.8Y-7.1
X5.8Y-7.5
X5.8Y-7.9
T2
X1.8Y-0.8
X1.8Y-0.9
X1.8Y-1.0
X5.6Y-0.8
X5.6Y-0.9
X5.6Y-1.0
T0
M30
