G04 #@! TF.GenerationSoftware,KiCad,Pcbnew,(5.1.5)-3*
G04 #@! TF.CreationDate,2020-10-28T14:25:38+01:00*
G04 #@! TF.ProjectId,7segment,37736567-6d65-46e7-942e-6b696361645f,rev?*
G04 #@! TF.SameCoordinates,Original*
G04 #@! TF.FileFunction,Profile,NP*
%FSLAX46Y46*%
G04 Gerber Fmt 4.6, Leading zero omitted, Abs format (unit mm)*
G04 Created by KiCad (PCBNEW (5.1.5)-3) date 2020-10-28 14:25:38*
%MOMM*%
%LPD*%
G04 APERTURE LIST*
%ADD10C,0.050000*%
G04 APERTURE END LIST*
D10*
X62230000Y-198120000D02*
X58420000Y-194310000D01*
X129540000Y-194310000D02*
X125730000Y-198120000D01*
X125730000Y-127000000D02*
X129540000Y-130810000D01*
X58420000Y-130810000D02*
X62230000Y-127000000D01*
X62230000Y-106680000D02*
X58420000Y-102870000D01*
X129540000Y-102870000D02*
X125730000Y-106680000D01*
X125730000Y-35560000D02*
X129540000Y-39370000D01*
X62230000Y-35560000D02*
X58420000Y-39370000D01*
X149860000Y-109220000D02*
X149860000Y-22860000D01*
X149860000Y-213360000D02*
X149860000Y-124460000D01*
X38100000Y-124460000D02*
X38100000Y-213360000D01*
X38100000Y-22860000D02*
X38100000Y-109220000D01*
X142240000Y-116840000D02*
X149860000Y-124460000D01*
X149860000Y-109220000D02*
X142240000Y-116840000D01*
X45720000Y-116840000D02*
X38100000Y-124460000D01*
X38100000Y-109220000D02*
X45720000Y-116840000D01*
X142240000Y-220980000D02*
X149860000Y-213360000D01*
X38100000Y-213360000D02*
X45720000Y-220980000D01*
X149860000Y-22860000D02*
X142240000Y-15240000D01*
X38100000Y-22860000D02*
X45720000Y-15240000D01*
X58420000Y-194310000D02*
X58420000Y-130810000D01*
X125730000Y-198120000D02*
X62230000Y-198120000D01*
X129540000Y-130810000D02*
X129540000Y-194310000D01*
X62230000Y-127000000D02*
X125730000Y-127000000D01*
X58420000Y-102870000D02*
X58420000Y-39370000D01*
X125730000Y-106680000D02*
X62230000Y-106680000D01*
X129540000Y-39370000D02*
X129540000Y-102870000D01*
X62230000Y-35560000D02*
X125730000Y-35560000D01*
X142240000Y-220980000D02*
X45720000Y-220980000D01*
X45720000Y-15240000D02*
X142240000Y-15240000D01*
M02*
