G04 #@! TF.GenerationSoftware,KiCad,Pcbnew,(5.1.5)-3*
G04 #@! TF.CreationDate,2020-10-28T14:02:02+01:00*
G04 #@! TF.ProjectId,7segment,37736567-6d65-46e7-942e-6b696361645f,rev?*
G04 #@! TF.SameCoordinates,Original*
G04 #@! TF.FileFunction,Legend,Top*
G04 #@! TF.FilePolarity,Positive*
%FSLAX46Y46*%
G04 Gerber Fmt 4.6, Leading zero omitted, Abs format (unit mm)*
G04 Created by KiCad (PCBNEW (5.1.5)-3) date 2020-10-28 14:02:02*
%MOMM*%
%LPD*%
G04 APERTURE LIST*
%ADD10C,0.120000*%
%ADD11C,0.150000*%
G04 APERTURE END LIST*
D10*
X131370000Y-122928748D02*
X131370000Y-123451252D01*
X132790000Y-122928748D02*
X132790000Y-123451252D01*
X100890000Y-122928748D02*
X100890000Y-123451252D01*
X102310000Y-122928748D02*
X102310000Y-123451252D01*
X70410000Y-122928748D02*
X70410000Y-123451252D01*
X71830000Y-122928748D02*
X71830000Y-123451252D01*
X55618748Y-36270000D02*
X56141252Y-36270000D01*
X55618748Y-34850000D02*
X56141252Y-34850000D01*
X55618748Y-66750000D02*
X56141252Y-66750000D01*
X55618748Y-65330000D02*
X56141252Y-65330000D01*
X55618748Y-97230000D02*
X56141252Y-97230000D01*
X55618748Y-95810000D02*
X56141252Y-95810000D01*
X55618748Y-127710000D02*
X56141252Y-127710000D01*
X55618748Y-126290000D02*
X56141252Y-126290000D01*
X55618748Y-158190000D02*
X56141252Y-158190000D01*
X55618748Y-156770000D02*
X56141252Y-156770000D01*
X55618748Y-188670000D02*
X56141252Y-188670000D01*
X55618748Y-187250000D02*
X56141252Y-187250000D01*
X57860000Y-203461252D02*
X57860000Y-202938748D01*
X56440000Y-203461252D02*
X56440000Y-202938748D01*
X88340000Y-203461252D02*
X88340000Y-202938748D01*
X86920000Y-203461252D02*
X86920000Y-202938748D01*
X118820000Y-203461252D02*
X118820000Y-202938748D01*
X117400000Y-203461252D02*
X117400000Y-202938748D01*
X132341252Y-197410000D02*
X131818748Y-197410000D01*
X132341252Y-198830000D02*
X131818748Y-198830000D01*
X132341252Y-166930000D02*
X131818748Y-166930000D01*
X132341252Y-168350000D02*
X131818748Y-168350000D01*
X132341252Y-136450000D02*
X131818748Y-136450000D01*
X132341252Y-137870000D02*
X131818748Y-137870000D01*
X132341252Y-105970000D02*
X131818748Y-105970000D01*
X132341252Y-107390000D02*
X131818748Y-107390000D01*
X132586253Y-75490000D02*
X132063749Y-75490000D01*
X132586253Y-76910000D02*
X132063749Y-76910000D01*
X132341252Y-45010000D02*
X131818748Y-45010000D01*
X132341252Y-46430000D02*
X131818748Y-46430000D01*
X128830000Y-32758748D02*
X128830000Y-33281252D01*
X130250000Y-32758748D02*
X130250000Y-33281252D01*
X98350000Y-32758748D02*
X98350000Y-33281252D01*
X99770000Y-32758748D02*
X99770000Y-33281252D01*
X67870000Y-32758748D02*
X67870000Y-33281252D01*
X69290000Y-32758748D02*
X69290000Y-33281252D01*
X52230000Y-22650000D02*
X52230000Y-23800000D01*
X59530000Y-22650000D02*
X52230000Y-22650000D01*
X59530000Y-28150000D02*
X52230000Y-28150000D01*
X50240000Y-23121252D02*
X50240000Y-22598748D01*
X48820000Y-23121252D02*
X48820000Y-22598748D01*
X143570000Y-26730000D02*
X142240000Y-26730000D01*
X143570000Y-25400000D02*
X143570000Y-26730000D01*
X143570000Y-24130000D02*
X140910000Y-24130000D01*
X140910000Y-24130000D02*
X140910000Y-18990000D01*
X143570000Y-24130000D02*
X143570000Y-18990000D01*
X143570000Y-18990000D02*
X140910000Y-18990000D01*
X47050000Y-26730000D02*
X45720000Y-26730000D01*
X47050000Y-25400000D02*
X47050000Y-26730000D01*
X47050000Y-24130000D02*
X44390000Y-24130000D01*
X44390000Y-24130000D02*
X44390000Y-18990000D01*
X47050000Y-24130000D02*
X47050000Y-18990000D01*
X47050000Y-18990000D02*
X44390000Y-18990000D01*
X128430000Y-114090000D02*
X128430000Y-115240000D01*
X135730000Y-114090000D02*
X128430000Y-114090000D01*
X135730000Y-119590000D02*
X128430000Y-119590000D01*
X113190000Y-114090000D02*
X113190000Y-115240000D01*
X120490000Y-114090000D02*
X113190000Y-114090000D01*
X120490000Y-119590000D02*
X113190000Y-119590000D01*
X97950000Y-114090000D02*
X97950000Y-115240000D01*
X105250000Y-114090000D02*
X97950000Y-114090000D01*
X105250000Y-119590000D02*
X97950000Y-119590000D01*
X82710000Y-114090000D02*
X82710000Y-115240000D01*
X90010000Y-114090000D02*
X82710000Y-114090000D01*
X90010000Y-119590000D02*
X82710000Y-119590000D01*
X67470000Y-114090000D02*
X67470000Y-115240000D01*
X74770000Y-114090000D02*
X67470000Y-114090000D01*
X74770000Y-119590000D02*
X67470000Y-119590000D01*
X52230000Y-114090000D02*
X52230000Y-115240000D01*
X59530000Y-114090000D02*
X52230000Y-114090000D01*
X59530000Y-119590000D02*
X52230000Y-119590000D01*
X45510000Y-36670000D02*
X46660000Y-36670000D01*
X45510000Y-29370000D02*
X45510000Y-36670000D01*
X51010000Y-29370000D02*
X51010000Y-36670000D01*
X45510000Y-51910000D02*
X46660000Y-51910000D01*
X45510000Y-44610000D02*
X45510000Y-51910000D01*
X51010000Y-44610000D02*
X51010000Y-51910000D01*
X45510000Y-67150000D02*
X46660000Y-67150000D01*
X45510000Y-59850000D02*
X45510000Y-67150000D01*
X51010000Y-59850000D02*
X51010000Y-67150000D01*
X45510000Y-82390000D02*
X46660000Y-82390000D01*
X45510000Y-75090000D02*
X45510000Y-82390000D01*
X51010000Y-75090000D02*
X51010000Y-82390000D01*
X45510000Y-97630000D02*
X46660000Y-97630000D01*
X45510000Y-90330000D02*
X45510000Y-97630000D01*
X51010000Y-90330000D02*
X51010000Y-97630000D01*
X45510000Y-112870000D02*
X46660000Y-112870000D01*
X45510000Y-105570000D02*
X45510000Y-112870000D01*
X51010000Y-105570000D02*
X51010000Y-112870000D01*
X45510000Y-128110000D02*
X46660000Y-128110000D01*
X45510000Y-120810000D02*
X45510000Y-128110000D01*
X51010000Y-120810000D02*
X51010000Y-128110000D01*
X45510000Y-143350000D02*
X46660000Y-143350000D01*
X45510000Y-136050000D02*
X45510000Y-143350000D01*
X51010000Y-136050000D02*
X51010000Y-143350000D01*
X45510000Y-158590000D02*
X46660000Y-158590000D01*
X45510000Y-151290000D02*
X45510000Y-158590000D01*
X51010000Y-151290000D02*
X51010000Y-158590000D01*
X45510000Y-173830000D02*
X46660000Y-173830000D01*
X45510000Y-166530000D02*
X45510000Y-173830000D01*
X51010000Y-166530000D02*
X51010000Y-173830000D01*
X45510000Y-189070000D02*
X46660000Y-189070000D01*
X45510000Y-181770000D02*
X45510000Y-189070000D01*
X51010000Y-181770000D02*
X51010000Y-189070000D01*
X45510000Y-204310000D02*
X46660000Y-204310000D01*
X45510000Y-197010000D02*
X45510000Y-204310000D01*
X51010000Y-197010000D02*
X51010000Y-204310000D01*
X59530000Y-213570000D02*
X59530000Y-212420000D01*
X52230000Y-213570000D02*
X59530000Y-213570000D01*
X52230000Y-208070000D02*
X59530000Y-208070000D01*
X74770000Y-213570000D02*
X74770000Y-212420000D01*
X67470000Y-213570000D02*
X74770000Y-213570000D01*
X67470000Y-208070000D02*
X74770000Y-208070000D01*
X90010000Y-213570000D02*
X90010000Y-212420000D01*
X82710000Y-213570000D02*
X90010000Y-213570000D01*
X82710000Y-208070000D02*
X90010000Y-208070000D01*
X105250000Y-213570000D02*
X105250000Y-212420000D01*
X97950000Y-213570000D02*
X105250000Y-213570000D01*
X97950000Y-208070000D02*
X105250000Y-208070000D01*
X120490000Y-213570000D02*
X120490000Y-212420000D01*
X113190000Y-213570000D02*
X120490000Y-213570000D01*
X113190000Y-208070000D02*
X120490000Y-208070000D01*
X135730000Y-213570000D02*
X135730000Y-212420000D01*
X128430000Y-213570000D02*
X135730000Y-213570000D01*
X128430000Y-208070000D02*
X135730000Y-208070000D01*
X142450000Y-197010000D02*
X141300000Y-197010000D01*
X142450000Y-204310000D02*
X142450000Y-197010000D01*
X136950000Y-204310000D02*
X136950000Y-197010000D01*
X142450000Y-181770000D02*
X141300000Y-181770000D01*
X142450000Y-189070000D02*
X142450000Y-181770000D01*
X136950000Y-189070000D02*
X136950000Y-181770000D01*
X142450000Y-166530000D02*
X141300000Y-166530000D01*
X142450000Y-173830000D02*
X142450000Y-166530000D01*
X136950000Y-173830000D02*
X136950000Y-166530000D01*
X142450000Y-151290000D02*
X141300000Y-151290000D01*
X142450000Y-158590000D02*
X142450000Y-151290000D01*
X136950000Y-158590000D02*
X136950000Y-151290000D01*
X142450000Y-136050000D02*
X141300000Y-136050000D01*
X142450000Y-143350000D02*
X142450000Y-136050000D01*
X136950000Y-143350000D02*
X136950000Y-136050000D01*
X142450000Y-120810000D02*
X141300000Y-120810000D01*
X142450000Y-128110000D02*
X142450000Y-120810000D01*
X136950000Y-128110000D02*
X136950000Y-120810000D01*
X142450000Y-105570000D02*
X141300000Y-105570000D01*
X142450000Y-112870000D02*
X142450000Y-105570000D01*
X136950000Y-112870000D02*
X136950000Y-105570000D01*
X142450000Y-90330000D02*
X141300000Y-90330000D01*
X142450000Y-97630000D02*
X142450000Y-90330000D01*
X136950000Y-97630000D02*
X136950000Y-90330000D01*
X142450000Y-75090000D02*
X141300000Y-75090000D01*
X142450000Y-82390000D02*
X142450000Y-75090000D01*
X136950000Y-82390000D02*
X136950000Y-75090000D01*
X142450000Y-59850000D02*
X141300000Y-59850000D01*
X142450000Y-67150000D02*
X142450000Y-59850000D01*
X136950000Y-67150000D02*
X136950000Y-59850000D01*
X142450000Y-44610000D02*
X141300000Y-44610000D01*
X142450000Y-51910000D02*
X142450000Y-44610000D01*
X136950000Y-51910000D02*
X136950000Y-44610000D01*
X142450000Y-29370000D02*
X141300000Y-29370000D01*
X142450000Y-36670000D02*
X142450000Y-29370000D01*
X136950000Y-36670000D02*
X136950000Y-29370000D01*
X128430000Y-22650000D02*
X128430000Y-23800000D01*
X135730000Y-22650000D02*
X128430000Y-22650000D01*
X135730000Y-28150000D02*
X128430000Y-28150000D01*
X113190000Y-22650000D02*
X113190000Y-23800000D01*
X120490000Y-22650000D02*
X113190000Y-22650000D01*
X120490000Y-28150000D02*
X113190000Y-28150000D01*
X97950000Y-22650000D02*
X97950000Y-23800000D01*
X105250000Y-22650000D02*
X97950000Y-22650000D01*
X105250000Y-28150000D02*
X97950000Y-28150000D01*
X82710000Y-22650000D02*
X82710000Y-23800000D01*
X90010000Y-22650000D02*
X82710000Y-22650000D01*
X90010000Y-28150000D02*
X82710000Y-28150000D01*
X67470000Y-22650000D02*
X67470000Y-23800000D01*
X74770000Y-22650000D02*
X67470000Y-22650000D01*
X74770000Y-28150000D02*
X67470000Y-28150000D01*
D11*
X134087142Y-123832857D02*
X134134761Y-123880476D01*
X134182380Y-124023333D01*
X134182380Y-124118571D01*
X134134761Y-124261428D01*
X134039523Y-124356666D01*
X133944285Y-124404285D01*
X133753809Y-124451904D01*
X133610952Y-124451904D01*
X133420476Y-124404285D01*
X133325238Y-124356666D01*
X133230000Y-124261428D01*
X133182380Y-124118571D01*
X133182380Y-124023333D01*
X133230000Y-123880476D01*
X133277619Y-123832857D01*
X133277619Y-123451904D02*
X133230000Y-123404285D01*
X133182380Y-123309047D01*
X133182380Y-123070952D01*
X133230000Y-122975714D01*
X133277619Y-122928095D01*
X133372857Y-122880476D01*
X133468095Y-122880476D01*
X133610952Y-122928095D01*
X134182380Y-123499523D01*
X134182380Y-122880476D01*
X134182380Y-121928095D02*
X134182380Y-122499523D01*
X134182380Y-122213809D02*
X133182380Y-122213809D01*
X133325238Y-122309047D01*
X133420476Y-122404285D01*
X133468095Y-122499523D01*
X103607142Y-123832857D02*
X103654761Y-123880476D01*
X103702380Y-124023333D01*
X103702380Y-124118571D01*
X103654761Y-124261428D01*
X103559523Y-124356666D01*
X103464285Y-124404285D01*
X103273809Y-124451904D01*
X103130952Y-124451904D01*
X102940476Y-124404285D01*
X102845238Y-124356666D01*
X102750000Y-124261428D01*
X102702380Y-124118571D01*
X102702380Y-124023333D01*
X102750000Y-123880476D01*
X102797619Y-123832857D01*
X102797619Y-123451904D02*
X102750000Y-123404285D01*
X102702380Y-123309047D01*
X102702380Y-123070952D01*
X102750000Y-122975714D01*
X102797619Y-122928095D01*
X102892857Y-122880476D01*
X102988095Y-122880476D01*
X103130952Y-122928095D01*
X103702380Y-123499523D01*
X103702380Y-122880476D01*
X102702380Y-122261428D02*
X102702380Y-122166190D01*
X102750000Y-122070952D01*
X102797619Y-122023333D01*
X102892857Y-121975714D01*
X103083333Y-121928095D01*
X103321428Y-121928095D01*
X103511904Y-121975714D01*
X103607142Y-122023333D01*
X103654761Y-122070952D01*
X103702380Y-122166190D01*
X103702380Y-122261428D01*
X103654761Y-122356666D01*
X103607142Y-122404285D01*
X103511904Y-122451904D01*
X103321428Y-122499523D01*
X103083333Y-122499523D01*
X102892857Y-122451904D01*
X102797619Y-122404285D01*
X102750000Y-122356666D01*
X102702380Y-122261428D01*
X73127142Y-123832857D02*
X73174761Y-123880476D01*
X73222380Y-124023333D01*
X73222380Y-124118571D01*
X73174761Y-124261428D01*
X73079523Y-124356666D01*
X72984285Y-124404285D01*
X72793809Y-124451904D01*
X72650952Y-124451904D01*
X72460476Y-124404285D01*
X72365238Y-124356666D01*
X72270000Y-124261428D01*
X72222380Y-124118571D01*
X72222380Y-124023333D01*
X72270000Y-123880476D01*
X72317619Y-123832857D01*
X73222380Y-122880476D02*
X73222380Y-123451904D01*
X73222380Y-123166190D02*
X72222380Y-123166190D01*
X72365238Y-123261428D01*
X72460476Y-123356666D01*
X72508095Y-123451904D01*
X73222380Y-122404285D02*
X73222380Y-122213809D01*
X73174761Y-122118571D01*
X73127142Y-122070952D01*
X72984285Y-121975714D01*
X72793809Y-121928095D01*
X72412857Y-121928095D01*
X72317619Y-121975714D01*
X72270000Y-122023333D01*
X72222380Y-122118571D01*
X72222380Y-122309047D01*
X72270000Y-122404285D01*
X72317619Y-122451904D01*
X72412857Y-122499523D01*
X72650952Y-122499523D01*
X72746190Y-122451904D01*
X72793809Y-122404285D01*
X72841428Y-122309047D01*
X72841428Y-122118571D01*
X72793809Y-122023333D01*
X72746190Y-121975714D01*
X72650952Y-121928095D01*
X55237142Y-34267142D02*
X55189523Y-34314761D01*
X55046666Y-34362380D01*
X54951428Y-34362380D01*
X54808571Y-34314761D01*
X54713333Y-34219523D01*
X54665714Y-34124285D01*
X54618095Y-33933809D01*
X54618095Y-33790952D01*
X54665714Y-33600476D01*
X54713333Y-33505238D01*
X54808571Y-33410000D01*
X54951428Y-33362380D01*
X55046666Y-33362380D01*
X55189523Y-33410000D01*
X55237142Y-33457619D01*
X56189523Y-34362380D02*
X55618095Y-34362380D01*
X55903809Y-34362380D02*
X55903809Y-33362380D01*
X55808571Y-33505238D01*
X55713333Y-33600476D01*
X55618095Y-33648095D01*
X56760952Y-33790952D02*
X56665714Y-33743333D01*
X56618095Y-33695714D01*
X56570476Y-33600476D01*
X56570476Y-33552857D01*
X56618095Y-33457619D01*
X56665714Y-33410000D01*
X56760952Y-33362380D01*
X56951428Y-33362380D01*
X57046666Y-33410000D01*
X57094285Y-33457619D01*
X57141904Y-33552857D01*
X57141904Y-33600476D01*
X57094285Y-33695714D01*
X57046666Y-33743333D01*
X56951428Y-33790952D01*
X56760952Y-33790952D01*
X56665714Y-33838571D01*
X56618095Y-33886190D01*
X56570476Y-33981428D01*
X56570476Y-34171904D01*
X56618095Y-34267142D01*
X56665714Y-34314761D01*
X56760952Y-34362380D01*
X56951428Y-34362380D01*
X57046666Y-34314761D01*
X57094285Y-34267142D01*
X57141904Y-34171904D01*
X57141904Y-33981428D01*
X57094285Y-33886190D01*
X57046666Y-33838571D01*
X56951428Y-33790952D01*
X55237142Y-64747142D02*
X55189523Y-64794761D01*
X55046666Y-64842380D01*
X54951428Y-64842380D01*
X54808571Y-64794761D01*
X54713333Y-64699523D01*
X54665714Y-64604285D01*
X54618095Y-64413809D01*
X54618095Y-64270952D01*
X54665714Y-64080476D01*
X54713333Y-63985238D01*
X54808571Y-63890000D01*
X54951428Y-63842380D01*
X55046666Y-63842380D01*
X55189523Y-63890000D01*
X55237142Y-63937619D01*
X56189523Y-64842380D02*
X55618095Y-64842380D01*
X55903809Y-64842380D02*
X55903809Y-63842380D01*
X55808571Y-63985238D01*
X55713333Y-64080476D01*
X55618095Y-64128095D01*
X56522857Y-63842380D02*
X57189523Y-63842380D01*
X56760952Y-64842380D01*
X55237142Y-95227142D02*
X55189523Y-95274761D01*
X55046666Y-95322380D01*
X54951428Y-95322380D01*
X54808571Y-95274761D01*
X54713333Y-95179523D01*
X54665714Y-95084285D01*
X54618095Y-94893809D01*
X54618095Y-94750952D01*
X54665714Y-94560476D01*
X54713333Y-94465238D01*
X54808571Y-94370000D01*
X54951428Y-94322380D01*
X55046666Y-94322380D01*
X55189523Y-94370000D01*
X55237142Y-94417619D01*
X56189523Y-95322380D02*
X55618095Y-95322380D01*
X55903809Y-95322380D02*
X55903809Y-94322380D01*
X55808571Y-94465238D01*
X55713333Y-94560476D01*
X55618095Y-94608095D01*
X57046666Y-94322380D02*
X56856190Y-94322380D01*
X56760952Y-94370000D01*
X56713333Y-94417619D01*
X56618095Y-94560476D01*
X56570476Y-94750952D01*
X56570476Y-95131904D01*
X56618095Y-95227142D01*
X56665714Y-95274761D01*
X56760952Y-95322380D01*
X56951428Y-95322380D01*
X57046666Y-95274761D01*
X57094285Y-95227142D01*
X57141904Y-95131904D01*
X57141904Y-94893809D01*
X57094285Y-94798571D01*
X57046666Y-94750952D01*
X56951428Y-94703333D01*
X56760952Y-94703333D01*
X56665714Y-94750952D01*
X56618095Y-94798571D01*
X56570476Y-94893809D01*
X55237142Y-125707142D02*
X55189523Y-125754761D01*
X55046666Y-125802380D01*
X54951428Y-125802380D01*
X54808571Y-125754761D01*
X54713333Y-125659523D01*
X54665714Y-125564285D01*
X54618095Y-125373809D01*
X54618095Y-125230952D01*
X54665714Y-125040476D01*
X54713333Y-124945238D01*
X54808571Y-124850000D01*
X54951428Y-124802380D01*
X55046666Y-124802380D01*
X55189523Y-124850000D01*
X55237142Y-124897619D01*
X56189523Y-125802380D02*
X55618095Y-125802380D01*
X55903809Y-125802380D02*
X55903809Y-124802380D01*
X55808571Y-124945238D01*
X55713333Y-125040476D01*
X55618095Y-125088095D01*
X57094285Y-124802380D02*
X56618095Y-124802380D01*
X56570476Y-125278571D01*
X56618095Y-125230952D01*
X56713333Y-125183333D01*
X56951428Y-125183333D01*
X57046666Y-125230952D01*
X57094285Y-125278571D01*
X57141904Y-125373809D01*
X57141904Y-125611904D01*
X57094285Y-125707142D01*
X57046666Y-125754761D01*
X56951428Y-125802380D01*
X56713333Y-125802380D01*
X56618095Y-125754761D01*
X56570476Y-125707142D01*
X55237142Y-156187142D02*
X55189523Y-156234761D01*
X55046666Y-156282380D01*
X54951428Y-156282380D01*
X54808571Y-156234761D01*
X54713333Y-156139523D01*
X54665714Y-156044285D01*
X54618095Y-155853809D01*
X54618095Y-155710952D01*
X54665714Y-155520476D01*
X54713333Y-155425238D01*
X54808571Y-155330000D01*
X54951428Y-155282380D01*
X55046666Y-155282380D01*
X55189523Y-155330000D01*
X55237142Y-155377619D01*
X56189523Y-156282380D02*
X55618095Y-156282380D01*
X55903809Y-156282380D02*
X55903809Y-155282380D01*
X55808571Y-155425238D01*
X55713333Y-155520476D01*
X55618095Y-155568095D01*
X57046666Y-155615714D02*
X57046666Y-156282380D01*
X56808571Y-155234761D02*
X56570476Y-155949047D01*
X57189523Y-155949047D01*
X55237142Y-186667142D02*
X55189523Y-186714761D01*
X55046666Y-186762380D01*
X54951428Y-186762380D01*
X54808571Y-186714761D01*
X54713333Y-186619523D01*
X54665714Y-186524285D01*
X54618095Y-186333809D01*
X54618095Y-186190952D01*
X54665714Y-186000476D01*
X54713333Y-185905238D01*
X54808571Y-185810000D01*
X54951428Y-185762380D01*
X55046666Y-185762380D01*
X55189523Y-185810000D01*
X55237142Y-185857619D01*
X56189523Y-186762380D02*
X55618095Y-186762380D01*
X55903809Y-186762380D02*
X55903809Y-185762380D01*
X55808571Y-185905238D01*
X55713333Y-186000476D01*
X55618095Y-186048095D01*
X56522857Y-185762380D02*
X57141904Y-185762380D01*
X56808571Y-186143333D01*
X56951428Y-186143333D01*
X57046666Y-186190952D01*
X57094285Y-186238571D01*
X57141904Y-186333809D01*
X57141904Y-186571904D01*
X57094285Y-186667142D01*
X57046666Y-186714761D01*
X56951428Y-186762380D01*
X56665714Y-186762380D01*
X56570476Y-186714761D01*
X56522857Y-186667142D01*
X55857142Y-203842857D02*
X55904761Y-203890476D01*
X55952380Y-204033333D01*
X55952380Y-204128571D01*
X55904761Y-204271428D01*
X55809523Y-204366666D01*
X55714285Y-204414285D01*
X55523809Y-204461904D01*
X55380952Y-204461904D01*
X55190476Y-204414285D01*
X55095238Y-204366666D01*
X55000000Y-204271428D01*
X54952380Y-204128571D01*
X54952380Y-204033333D01*
X55000000Y-203890476D01*
X55047619Y-203842857D01*
X55952380Y-202890476D02*
X55952380Y-203461904D01*
X55952380Y-203176190D02*
X54952380Y-203176190D01*
X55095238Y-203271428D01*
X55190476Y-203366666D01*
X55238095Y-203461904D01*
X55047619Y-202509523D02*
X55000000Y-202461904D01*
X54952380Y-202366666D01*
X54952380Y-202128571D01*
X55000000Y-202033333D01*
X55047619Y-201985714D01*
X55142857Y-201938095D01*
X55238095Y-201938095D01*
X55380952Y-201985714D01*
X55952380Y-202557142D01*
X55952380Y-201938095D01*
X86337142Y-203842857D02*
X86384761Y-203890476D01*
X86432380Y-204033333D01*
X86432380Y-204128571D01*
X86384761Y-204271428D01*
X86289523Y-204366666D01*
X86194285Y-204414285D01*
X86003809Y-204461904D01*
X85860952Y-204461904D01*
X85670476Y-204414285D01*
X85575238Y-204366666D01*
X85480000Y-204271428D01*
X85432380Y-204128571D01*
X85432380Y-204033333D01*
X85480000Y-203890476D01*
X85527619Y-203842857D01*
X86432380Y-202890476D02*
X86432380Y-203461904D01*
X86432380Y-203176190D02*
X85432380Y-203176190D01*
X85575238Y-203271428D01*
X85670476Y-203366666D01*
X85718095Y-203461904D01*
X86432380Y-201938095D02*
X86432380Y-202509523D01*
X86432380Y-202223809D02*
X85432380Y-202223809D01*
X85575238Y-202319047D01*
X85670476Y-202414285D01*
X85718095Y-202509523D01*
X116817142Y-203842857D02*
X116864761Y-203890476D01*
X116912380Y-204033333D01*
X116912380Y-204128571D01*
X116864761Y-204271428D01*
X116769523Y-204366666D01*
X116674285Y-204414285D01*
X116483809Y-204461904D01*
X116340952Y-204461904D01*
X116150476Y-204414285D01*
X116055238Y-204366666D01*
X115960000Y-204271428D01*
X115912380Y-204128571D01*
X115912380Y-204033333D01*
X115960000Y-203890476D01*
X116007619Y-203842857D01*
X116912380Y-202890476D02*
X116912380Y-203461904D01*
X116912380Y-203176190D02*
X115912380Y-203176190D01*
X116055238Y-203271428D01*
X116150476Y-203366666D01*
X116198095Y-203461904D01*
X115912380Y-202271428D02*
X115912380Y-202176190D01*
X115960000Y-202080952D01*
X116007619Y-202033333D01*
X116102857Y-201985714D01*
X116293333Y-201938095D01*
X116531428Y-201938095D01*
X116721904Y-201985714D01*
X116817142Y-202033333D01*
X116864761Y-202080952D01*
X116912380Y-202176190D01*
X116912380Y-202271428D01*
X116864761Y-202366666D01*
X116817142Y-202414285D01*
X116721904Y-202461904D01*
X116531428Y-202509523D01*
X116293333Y-202509523D01*
X116102857Y-202461904D01*
X116007619Y-202414285D01*
X115960000Y-202366666D01*
X115912380Y-202271428D01*
X131913333Y-200127142D02*
X131865714Y-200174761D01*
X131722857Y-200222380D01*
X131627619Y-200222380D01*
X131484761Y-200174761D01*
X131389523Y-200079523D01*
X131341904Y-199984285D01*
X131294285Y-199793809D01*
X131294285Y-199650952D01*
X131341904Y-199460476D01*
X131389523Y-199365238D01*
X131484761Y-199270000D01*
X131627619Y-199222380D01*
X131722857Y-199222380D01*
X131865714Y-199270000D01*
X131913333Y-199317619D01*
X132389523Y-200222380D02*
X132580000Y-200222380D01*
X132675238Y-200174761D01*
X132722857Y-200127142D01*
X132818095Y-199984285D01*
X132865714Y-199793809D01*
X132865714Y-199412857D01*
X132818095Y-199317619D01*
X132770476Y-199270000D01*
X132675238Y-199222380D01*
X132484761Y-199222380D01*
X132389523Y-199270000D01*
X132341904Y-199317619D01*
X132294285Y-199412857D01*
X132294285Y-199650952D01*
X132341904Y-199746190D01*
X132389523Y-199793809D01*
X132484761Y-199841428D01*
X132675238Y-199841428D01*
X132770476Y-199793809D01*
X132818095Y-199746190D01*
X132865714Y-199650952D01*
X131913333Y-169647142D02*
X131865714Y-169694761D01*
X131722857Y-169742380D01*
X131627619Y-169742380D01*
X131484761Y-169694761D01*
X131389523Y-169599523D01*
X131341904Y-169504285D01*
X131294285Y-169313809D01*
X131294285Y-169170952D01*
X131341904Y-168980476D01*
X131389523Y-168885238D01*
X131484761Y-168790000D01*
X131627619Y-168742380D01*
X131722857Y-168742380D01*
X131865714Y-168790000D01*
X131913333Y-168837619D01*
X132484761Y-169170952D02*
X132389523Y-169123333D01*
X132341904Y-169075714D01*
X132294285Y-168980476D01*
X132294285Y-168932857D01*
X132341904Y-168837619D01*
X132389523Y-168790000D01*
X132484761Y-168742380D01*
X132675238Y-168742380D01*
X132770476Y-168790000D01*
X132818095Y-168837619D01*
X132865714Y-168932857D01*
X132865714Y-168980476D01*
X132818095Y-169075714D01*
X132770476Y-169123333D01*
X132675238Y-169170952D01*
X132484761Y-169170952D01*
X132389523Y-169218571D01*
X132341904Y-169266190D01*
X132294285Y-169361428D01*
X132294285Y-169551904D01*
X132341904Y-169647142D01*
X132389523Y-169694761D01*
X132484761Y-169742380D01*
X132675238Y-169742380D01*
X132770476Y-169694761D01*
X132818095Y-169647142D01*
X132865714Y-169551904D01*
X132865714Y-169361428D01*
X132818095Y-169266190D01*
X132770476Y-169218571D01*
X132675238Y-169170952D01*
X131913333Y-139167142D02*
X131865714Y-139214761D01*
X131722857Y-139262380D01*
X131627619Y-139262380D01*
X131484761Y-139214761D01*
X131389523Y-139119523D01*
X131341904Y-139024285D01*
X131294285Y-138833809D01*
X131294285Y-138690952D01*
X131341904Y-138500476D01*
X131389523Y-138405238D01*
X131484761Y-138310000D01*
X131627619Y-138262380D01*
X131722857Y-138262380D01*
X131865714Y-138310000D01*
X131913333Y-138357619D01*
X132246666Y-138262380D02*
X132913333Y-138262380D01*
X132484761Y-139262380D01*
X131913333Y-108687142D02*
X131865714Y-108734761D01*
X131722857Y-108782380D01*
X131627619Y-108782380D01*
X131484761Y-108734761D01*
X131389523Y-108639523D01*
X131341904Y-108544285D01*
X131294285Y-108353809D01*
X131294285Y-108210952D01*
X131341904Y-108020476D01*
X131389523Y-107925238D01*
X131484761Y-107830000D01*
X131627619Y-107782380D01*
X131722857Y-107782380D01*
X131865714Y-107830000D01*
X131913333Y-107877619D01*
X132770476Y-107782380D02*
X132580000Y-107782380D01*
X132484761Y-107830000D01*
X132437142Y-107877619D01*
X132341904Y-108020476D01*
X132294285Y-108210952D01*
X132294285Y-108591904D01*
X132341904Y-108687142D01*
X132389523Y-108734761D01*
X132484761Y-108782380D01*
X132675238Y-108782380D01*
X132770476Y-108734761D01*
X132818095Y-108687142D01*
X132865714Y-108591904D01*
X132865714Y-108353809D01*
X132818095Y-108258571D01*
X132770476Y-108210952D01*
X132675238Y-108163333D01*
X132484761Y-108163333D01*
X132389523Y-108210952D01*
X132341904Y-108258571D01*
X132294285Y-108353809D01*
X132158334Y-78207142D02*
X132110715Y-78254761D01*
X131967858Y-78302380D01*
X131872620Y-78302380D01*
X131729762Y-78254761D01*
X131634524Y-78159523D01*
X131586905Y-78064285D01*
X131539286Y-77873809D01*
X131539286Y-77730952D01*
X131586905Y-77540476D01*
X131634524Y-77445238D01*
X131729762Y-77350000D01*
X131872620Y-77302380D01*
X131967858Y-77302380D01*
X132110715Y-77350000D01*
X132158334Y-77397619D01*
X133063096Y-77302380D02*
X132586905Y-77302380D01*
X132539286Y-77778571D01*
X132586905Y-77730952D01*
X132682143Y-77683333D01*
X132920239Y-77683333D01*
X133015477Y-77730952D01*
X133063096Y-77778571D01*
X133110715Y-77873809D01*
X133110715Y-78111904D01*
X133063096Y-78207142D01*
X133015477Y-78254761D01*
X132920239Y-78302380D01*
X132682143Y-78302380D01*
X132586905Y-78254761D01*
X132539286Y-78207142D01*
X131913333Y-47727142D02*
X131865714Y-47774761D01*
X131722857Y-47822380D01*
X131627619Y-47822380D01*
X131484761Y-47774761D01*
X131389523Y-47679523D01*
X131341904Y-47584285D01*
X131294285Y-47393809D01*
X131294285Y-47250952D01*
X131341904Y-47060476D01*
X131389523Y-46965238D01*
X131484761Y-46870000D01*
X131627619Y-46822380D01*
X131722857Y-46822380D01*
X131865714Y-46870000D01*
X131913333Y-46917619D01*
X132770476Y-47155714D02*
X132770476Y-47822380D01*
X132532380Y-46774761D02*
X132294285Y-47489047D01*
X132913333Y-47489047D01*
X131547142Y-33186666D02*
X131594761Y-33234285D01*
X131642380Y-33377142D01*
X131642380Y-33472380D01*
X131594761Y-33615238D01*
X131499523Y-33710476D01*
X131404285Y-33758095D01*
X131213809Y-33805714D01*
X131070952Y-33805714D01*
X130880476Y-33758095D01*
X130785238Y-33710476D01*
X130690000Y-33615238D01*
X130642380Y-33472380D01*
X130642380Y-33377142D01*
X130690000Y-33234285D01*
X130737619Y-33186666D01*
X130642380Y-32853333D02*
X130642380Y-32234285D01*
X131023333Y-32567619D01*
X131023333Y-32424761D01*
X131070952Y-32329523D01*
X131118571Y-32281904D01*
X131213809Y-32234285D01*
X131451904Y-32234285D01*
X131547142Y-32281904D01*
X131594761Y-32329523D01*
X131642380Y-32424761D01*
X131642380Y-32710476D01*
X131594761Y-32805714D01*
X131547142Y-32853333D01*
X101067142Y-33186666D02*
X101114761Y-33234285D01*
X101162380Y-33377142D01*
X101162380Y-33472380D01*
X101114761Y-33615238D01*
X101019523Y-33710476D01*
X100924285Y-33758095D01*
X100733809Y-33805714D01*
X100590952Y-33805714D01*
X100400476Y-33758095D01*
X100305238Y-33710476D01*
X100210000Y-33615238D01*
X100162380Y-33472380D01*
X100162380Y-33377142D01*
X100210000Y-33234285D01*
X100257619Y-33186666D01*
X100257619Y-32805714D02*
X100210000Y-32758095D01*
X100162380Y-32662857D01*
X100162380Y-32424761D01*
X100210000Y-32329523D01*
X100257619Y-32281904D01*
X100352857Y-32234285D01*
X100448095Y-32234285D01*
X100590952Y-32281904D01*
X101162380Y-32853333D01*
X101162380Y-32234285D01*
X70587142Y-33186666D02*
X70634761Y-33234285D01*
X70682380Y-33377142D01*
X70682380Y-33472380D01*
X70634761Y-33615238D01*
X70539523Y-33710476D01*
X70444285Y-33758095D01*
X70253809Y-33805714D01*
X70110952Y-33805714D01*
X69920476Y-33758095D01*
X69825238Y-33710476D01*
X69730000Y-33615238D01*
X69682380Y-33472380D01*
X69682380Y-33377142D01*
X69730000Y-33234285D01*
X69777619Y-33186666D01*
X70682380Y-32234285D02*
X70682380Y-32805714D01*
X70682380Y-32520000D02*
X69682380Y-32520000D01*
X69825238Y-32615238D01*
X69920476Y-32710476D01*
X69968095Y-32805714D01*
X55141904Y-29352380D02*
X55141904Y-28352380D01*
X55380000Y-28352380D01*
X55522857Y-28400000D01*
X55618095Y-28495238D01*
X55665714Y-28590476D01*
X55713333Y-28780952D01*
X55713333Y-28923809D01*
X55665714Y-29114285D01*
X55618095Y-29209523D01*
X55522857Y-29304761D01*
X55380000Y-29352380D01*
X55141904Y-29352380D01*
X56665714Y-29352380D02*
X56094285Y-29352380D01*
X56380000Y-29352380D02*
X56380000Y-28352380D01*
X56284761Y-28495238D01*
X56189523Y-28590476D01*
X56094285Y-28638095D01*
X60315714Y-27452380D02*
X59744285Y-27452380D01*
X60030000Y-27452380D02*
X60030000Y-26452380D01*
X59934761Y-26595238D01*
X59839523Y-26690476D01*
X59744285Y-26738095D01*
X62738095Y-26732380D02*
X62738095Y-25732380D01*
X62738095Y-26208571D02*
X63309523Y-26208571D01*
X63309523Y-26732380D02*
X63309523Y-25732380D01*
X64309523Y-26732380D02*
X63738095Y-26732380D01*
X64023809Y-26732380D02*
X64023809Y-25732380D01*
X63928571Y-25875238D01*
X63833333Y-25970476D01*
X63738095Y-26018095D01*
X48332380Y-23026666D02*
X47856190Y-23360000D01*
X48332380Y-23598095D02*
X47332380Y-23598095D01*
X47332380Y-23217142D01*
X47380000Y-23121904D01*
X47427619Y-23074285D01*
X47522857Y-23026666D01*
X47665714Y-23026666D01*
X47760952Y-23074285D01*
X47808571Y-23121904D01*
X47856190Y-23217142D01*
X47856190Y-23598095D01*
X48332380Y-22074285D02*
X48332380Y-22645714D01*
X48332380Y-22360000D02*
X47332380Y-22360000D01*
X47475238Y-22455238D01*
X47570476Y-22550476D01*
X47618095Y-22645714D01*
X141906666Y-27182380D02*
X141906666Y-27896666D01*
X141859047Y-28039523D01*
X141763809Y-28134761D01*
X141620952Y-28182380D01*
X141525714Y-28182380D01*
X142335238Y-27277619D02*
X142382857Y-27230000D01*
X142478095Y-27182380D01*
X142716190Y-27182380D01*
X142811428Y-27230000D01*
X142859047Y-27277619D01*
X142906666Y-27372857D01*
X142906666Y-27468095D01*
X142859047Y-27610952D01*
X142287619Y-28182380D01*
X142906666Y-28182380D01*
X45386666Y-27182380D02*
X45386666Y-27896666D01*
X45339047Y-28039523D01*
X45243809Y-28134761D01*
X45100952Y-28182380D01*
X45005714Y-28182380D01*
X46386666Y-28182380D02*
X45815238Y-28182380D01*
X46100952Y-28182380D02*
X46100952Y-27182380D01*
X46005714Y-27325238D01*
X45910476Y-27420476D01*
X45815238Y-27468095D01*
X130865714Y-120792380D02*
X130865714Y-119792380D01*
X131103809Y-119792380D01*
X131246666Y-119840000D01*
X131341904Y-119935238D01*
X131389523Y-120030476D01*
X131437142Y-120220952D01*
X131437142Y-120363809D01*
X131389523Y-120554285D01*
X131341904Y-120649523D01*
X131246666Y-120744761D01*
X131103809Y-120792380D01*
X130865714Y-120792380D01*
X132294285Y-120125714D02*
X132294285Y-120792380D01*
X132056190Y-119744761D02*
X131818095Y-120459047D01*
X132437142Y-120459047D01*
X132770476Y-119887619D02*
X132818095Y-119840000D01*
X132913333Y-119792380D01*
X133151428Y-119792380D01*
X133246666Y-119840000D01*
X133294285Y-119887619D01*
X133341904Y-119982857D01*
X133341904Y-120078095D01*
X133294285Y-120220952D01*
X132722857Y-120792380D01*
X133341904Y-120792380D01*
X136515714Y-118892380D02*
X135944285Y-118892380D01*
X136230000Y-118892380D02*
X136230000Y-117892380D01*
X136134761Y-118035238D01*
X136039523Y-118130476D01*
X135944285Y-118178095D01*
X115625714Y-120792380D02*
X115625714Y-119792380D01*
X115863809Y-119792380D01*
X116006666Y-119840000D01*
X116101904Y-119935238D01*
X116149523Y-120030476D01*
X116197142Y-120220952D01*
X116197142Y-120363809D01*
X116149523Y-120554285D01*
X116101904Y-120649523D01*
X116006666Y-120744761D01*
X115863809Y-120792380D01*
X115625714Y-120792380D01*
X117054285Y-120125714D02*
X117054285Y-120792380D01*
X116816190Y-119744761D02*
X116578095Y-120459047D01*
X117197142Y-120459047D01*
X118101904Y-120792380D02*
X117530476Y-120792380D01*
X117816190Y-120792380D02*
X117816190Y-119792380D01*
X117720952Y-119935238D01*
X117625714Y-120030476D01*
X117530476Y-120078095D01*
X121275714Y-118892380D02*
X120704285Y-118892380D01*
X120990000Y-118892380D02*
X120990000Y-117892380D01*
X120894761Y-118035238D01*
X120799523Y-118130476D01*
X120704285Y-118178095D01*
X100385714Y-120792380D02*
X100385714Y-119792380D01*
X100623809Y-119792380D01*
X100766666Y-119840000D01*
X100861904Y-119935238D01*
X100909523Y-120030476D01*
X100957142Y-120220952D01*
X100957142Y-120363809D01*
X100909523Y-120554285D01*
X100861904Y-120649523D01*
X100766666Y-120744761D01*
X100623809Y-120792380D01*
X100385714Y-120792380D01*
X101814285Y-120125714D02*
X101814285Y-120792380D01*
X101576190Y-119744761D02*
X101338095Y-120459047D01*
X101957142Y-120459047D01*
X102528571Y-119792380D02*
X102623809Y-119792380D01*
X102719047Y-119840000D01*
X102766666Y-119887619D01*
X102814285Y-119982857D01*
X102861904Y-120173333D01*
X102861904Y-120411428D01*
X102814285Y-120601904D01*
X102766666Y-120697142D01*
X102719047Y-120744761D01*
X102623809Y-120792380D01*
X102528571Y-120792380D01*
X102433333Y-120744761D01*
X102385714Y-120697142D01*
X102338095Y-120601904D01*
X102290476Y-120411428D01*
X102290476Y-120173333D01*
X102338095Y-119982857D01*
X102385714Y-119887619D01*
X102433333Y-119840000D01*
X102528571Y-119792380D01*
X106035714Y-118892380D02*
X105464285Y-118892380D01*
X105750000Y-118892380D02*
X105750000Y-117892380D01*
X105654761Y-118035238D01*
X105559523Y-118130476D01*
X105464285Y-118178095D01*
X85145714Y-120792380D02*
X85145714Y-119792380D01*
X85383809Y-119792380D01*
X85526666Y-119840000D01*
X85621904Y-119935238D01*
X85669523Y-120030476D01*
X85717142Y-120220952D01*
X85717142Y-120363809D01*
X85669523Y-120554285D01*
X85621904Y-120649523D01*
X85526666Y-120744761D01*
X85383809Y-120792380D01*
X85145714Y-120792380D01*
X86050476Y-119792380D02*
X86669523Y-119792380D01*
X86336190Y-120173333D01*
X86479047Y-120173333D01*
X86574285Y-120220952D01*
X86621904Y-120268571D01*
X86669523Y-120363809D01*
X86669523Y-120601904D01*
X86621904Y-120697142D01*
X86574285Y-120744761D01*
X86479047Y-120792380D01*
X86193333Y-120792380D01*
X86098095Y-120744761D01*
X86050476Y-120697142D01*
X87145714Y-120792380D02*
X87336190Y-120792380D01*
X87431428Y-120744761D01*
X87479047Y-120697142D01*
X87574285Y-120554285D01*
X87621904Y-120363809D01*
X87621904Y-119982857D01*
X87574285Y-119887619D01*
X87526666Y-119840000D01*
X87431428Y-119792380D01*
X87240952Y-119792380D01*
X87145714Y-119840000D01*
X87098095Y-119887619D01*
X87050476Y-119982857D01*
X87050476Y-120220952D01*
X87098095Y-120316190D01*
X87145714Y-120363809D01*
X87240952Y-120411428D01*
X87431428Y-120411428D01*
X87526666Y-120363809D01*
X87574285Y-120316190D01*
X87621904Y-120220952D01*
X90795714Y-118892380D02*
X90224285Y-118892380D01*
X90510000Y-118892380D02*
X90510000Y-117892380D01*
X90414761Y-118035238D01*
X90319523Y-118130476D01*
X90224285Y-118178095D01*
X69905714Y-120792380D02*
X69905714Y-119792380D01*
X70143809Y-119792380D01*
X70286666Y-119840000D01*
X70381904Y-119935238D01*
X70429523Y-120030476D01*
X70477142Y-120220952D01*
X70477142Y-120363809D01*
X70429523Y-120554285D01*
X70381904Y-120649523D01*
X70286666Y-120744761D01*
X70143809Y-120792380D01*
X69905714Y-120792380D01*
X70810476Y-119792380D02*
X71429523Y-119792380D01*
X71096190Y-120173333D01*
X71239047Y-120173333D01*
X71334285Y-120220952D01*
X71381904Y-120268571D01*
X71429523Y-120363809D01*
X71429523Y-120601904D01*
X71381904Y-120697142D01*
X71334285Y-120744761D01*
X71239047Y-120792380D01*
X70953333Y-120792380D01*
X70858095Y-120744761D01*
X70810476Y-120697142D01*
X72000952Y-120220952D02*
X71905714Y-120173333D01*
X71858095Y-120125714D01*
X71810476Y-120030476D01*
X71810476Y-119982857D01*
X71858095Y-119887619D01*
X71905714Y-119840000D01*
X72000952Y-119792380D01*
X72191428Y-119792380D01*
X72286666Y-119840000D01*
X72334285Y-119887619D01*
X72381904Y-119982857D01*
X72381904Y-120030476D01*
X72334285Y-120125714D01*
X72286666Y-120173333D01*
X72191428Y-120220952D01*
X72000952Y-120220952D01*
X71905714Y-120268571D01*
X71858095Y-120316190D01*
X71810476Y-120411428D01*
X71810476Y-120601904D01*
X71858095Y-120697142D01*
X71905714Y-120744761D01*
X72000952Y-120792380D01*
X72191428Y-120792380D01*
X72286666Y-120744761D01*
X72334285Y-120697142D01*
X72381904Y-120601904D01*
X72381904Y-120411428D01*
X72334285Y-120316190D01*
X72286666Y-120268571D01*
X72191428Y-120220952D01*
X75555714Y-118892380D02*
X74984285Y-118892380D01*
X75270000Y-118892380D02*
X75270000Y-117892380D01*
X75174761Y-118035238D01*
X75079523Y-118130476D01*
X74984285Y-118178095D01*
X54665714Y-120792380D02*
X54665714Y-119792380D01*
X54903809Y-119792380D01*
X55046666Y-119840000D01*
X55141904Y-119935238D01*
X55189523Y-120030476D01*
X55237142Y-120220952D01*
X55237142Y-120363809D01*
X55189523Y-120554285D01*
X55141904Y-120649523D01*
X55046666Y-120744761D01*
X54903809Y-120792380D01*
X54665714Y-120792380D01*
X55570476Y-119792380D02*
X56189523Y-119792380D01*
X55856190Y-120173333D01*
X55999047Y-120173333D01*
X56094285Y-120220952D01*
X56141904Y-120268571D01*
X56189523Y-120363809D01*
X56189523Y-120601904D01*
X56141904Y-120697142D01*
X56094285Y-120744761D01*
X55999047Y-120792380D01*
X55713333Y-120792380D01*
X55618095Y-120744761D01*
X55570476Y-120697142D01*
X56522857Y-119792380D02*
X57189523Y-119792380D01*
X56760952Y-120792380D01*
X60315714Y-118892380D02*
X59744285Y-118892380D01*
X60030000Y-118892380D02*
X60030000Y-117892380D01*
X59934761Y-118035238D01*
X59839523Y-118130476D01*
X59744285Y-118178095D01*
X52212380Y-34234285D02*
X51212380Y-34234285D01*
X51212380Y-33996190D01*
X51260000Y-33853333D01*
X51355238Y-33758095D01*
X51450476Y-33710476D01*
X51640952Y-33662857D01*
X51783809Y-33662857D01*
X51974285Y-33710476D01*
X52069523Y-33758095D01*
X52164761Y-33853333D01*
X52212380Y-33996190D01*
X52212380Y-34234285D01*
X51212380Y-33329523D02*
X51212380Y-32710476D01*
X51593333Y-33043809D01*
X51593333Y-32900952D01*
X51640952Y-32805714D01*
X51688571Y-32758095D01*
X51783809Y-32710476D01*
X52021904Y-32710476D01*
X52117142Y-32758095D01*
X52164761Y-32805714D01*
X52212380Y-32900952D01*
X52212380Y-33186666D01*
X52164761Y-33281904D01*
X52117142Y-33329523D01*
X51212380Y-31853333D02*
X51212380Y-32043809D01*
X51260000Y-32139047D01*
X51307619Y-32186666D01*
X51450476Y-32281904D01*
X51640952Y-32329523D01*
X52021904Y-32329523D01*
X52117142Y-32281904D01*
X52164761Y-32234285D01*
X52212380Y-32139047D01*
X52212380Y-31948571D01*
X52164761Y-31853333D01*
X52117142Y-31805714D01*
X52021904Y-31758095D01*
X51783809Y-31758095D01*
X51688571Y-31805714D01*
X51640952Y-31853333D01*
X51593333Y-31948571D01*
X51593333Y-32139047D01*
X51640952Y-32234285D01*
X51688571Y-32281904D01*
X51783809Y-32329523D01*
X50312380Y-28584285D02*
X50312380Y-29155714D01*
X50312380Y-28870000D02*
X49312380Y-28870000D01*
X49455238Y-28965238D01*
X49550476Y-29060476D01*
X49598095Y-29155714D01*
X52212380Y-49474285D02*
X51212380Y-49474285D01*
X51212380Y-49236190D01*
X51260000Y-49093333D01*
X51355238Y-48998095D01*
X51450476Y-48950476D01*
X51640952Y-48902857D01*
X51783809Y-48902857D01*
X51974285Y-48950476D01*
X52069523Y-48998095D01*
X52164761Y-49093333D01*
X52212380Y-49236190D01*
X52212380Y-49474285D01*
X51212380Y-48569523D02*
X51212380Y-47950476D01*
X51593333Y-48283809D01*
X51593333Y-48140952D01*
X51640952Y-48045714D01*
X51688571Y-47998095D01*
X51783809Y-47950476D01*
X52021904Y-47950476D01*
X52117142Y-47998095D01*
X52164761Y-48045714D01*
X52212380Y-48140952D01*
X52212380Y-48426666D01*
X52164761Y-48521904D01*
X52117142Y-48569523D01*
X51212380Y-47045714D02*
X51212380Y-47521904D01*
X51688571Y-47569523D01*
X51640952Y-47521904D01*
X51593333Y-47426666D01*
X51593333Y-47188571D01*
X51640952Y-47093333D01*
X51688571Y-47045714D01*
X51783809Y-46998095D01*
X52021904Y-46998095D01*
X52117142Y-47045714D01*
X52164761Y-47093333D01*
X52212380Y-47188571D01*
X52212380Y-47426666D01*
X52164761Y-47521904D01*
X52117142Y-47569523D01*
X50312380Y-43824285D02*
X50312380Y-44395714D01*
X50312380Y-44110000D02*
X49312380Y-44110000D01*
X49455238Y-44205238D01*
X49550476Y-44300476D01*
X49598095Y-44395714D01*
X52212380Y-64714285D02*
X51212380Y-64714285D01*
X51212380Y-64476190D01*
X51260000Y-64333333D01*
X51355238Y-64238095D01*
X51450476Y-64190476D01*
X51640952Y-64142857D01*
X51783809Y-64142857D01*
X51974285Y-64190476D01*
X52069523Y-64238095D01*
X52164761Y-64333333D01*
X52212380Y-64476190D01*
X52212380Y-64714285D01*
X51212380Y-63809523D02*
X51212380Y-63190476D01*
X51593333Y-63523809D01*
X51593333Y-63380952D01*
X51640952Y-63285714D01*
X51688571Y-63238095D01*
X51783809Y-63190476D01*
X52021904Y-63190476D01*
X52117142Y-63238095D01*
X52164761Y-63285714D01*
X52212380Y-63380952D01*
X52212380Y-63666666D01*
X52164761Y-63761904D01*
X52117142Y-63809523D01*
X51545714Y-62333333D02*
X52212380Y-62333333D01*
X51164761Y-62571428D02*
X51879047Y-62809523D01*
X51879047Y-62190476D01*
X50312380Y-59064285D02*
X50312380Y-59635714D01*
X50312380Y-59350000D02*
X49312380Y-59350000D01*
X49455238Y-59445238D01*
X49550476Y-59540476D01*
X49598095Y-59635714D01*
X52212380Y-79954285D02*
X51212380Y-79954285D01*
X51212380Y-79716190D01*
X51260000Y-79573333D01*
X51355238Y-79478095D01*
X51450476Y-79430476D01*
X51640952Y-79382857D01*
X51783809Y-79382857D01*
X51974285Y-79430476D01*
X52069523Y-79478095D01*
X52164761Y-79573333D01*
X52212380Y-79716190D01*
X52212380Y-79954285D01*
X51212380Y-79049523D02*
X51212380Y-78430476D01*
X51593333Y-78763809D01*
X51593333Y-78620952D01*
X51640952Y-78525714D01*
X51688571Y-78478095D01*
X51783809Y-78430476D01*
X52021904Y-78430476D01*
X52117142Y-78478095D01*
X52164761Y-78525714D01*
X52212380Y-78620952D01*
X52212380Y-78906666D01*
X52164761Y-79001904D01*
X52117142Y-79049523D01*
X51212380Y-78097142D02*
X51212380Y-77478095D01*
X51593333Y-77811428D01*
X51593333Y-77668571D01*
X51640952Y-77573333D01*
X51688571Y-77525714D01*
X51783809Y-77478095D01*
X52021904Y-77478095D01*
X52117142Y-77525714D01*
X52164761Y-77573333D01*
X52212380Y-77668571D01*
X52212380Y-77954285D01*
X52164761Y-78049523D01*
X52117142Y-78097142D01*
X50312380Y-74304285D02*
X50312380Y-74875714D01*
X50312380Y-74590000D02*
X49312380Y-74590000D01*
X49455238Y-74685238D01*
X49550476Y-74780476D01*
X49598095Y-74875714D01*
X52212380Y-95194285D02*
X51212380Y-95194285D01*
X51212380Y-94956190D01*
X51260000Y-94813333D01*
X51355238Y-94718095D01*
X51450476Y-94670476D01*
X51640952Y-94622857D01*
X51783809Y-94622857D01*
X51974285Y-94670476D01*
X52069523Y-94718095D01*
X52164761Y-94813333D01*
X52212380Y-94956190D01*
X52212380Y-95194285D01*
X51212380Y-94289523D02*
X51212380Y-93670476D01*
X51593333Y-94003809D01*
X51593333Y-93860952D01*
X51640952Y-93765714D01*
X51688571Y-93718095D01*
X51783809Y-93670476D01*
X52021904Y-93670476D01*
X52117142Y-93718095D01*
X52164761Y-93765714D01*
X52212380Y-93860952D01*
X52212380Y-94146666D01*
X52164761Y-94241904D01*
X52117142Y-94289523D01*
X51307619Y-93289523D02*
X51260000Y-93241904D01*
X51212380Y-93146666D01*
X51212380Y-92908571D01*
X51260000Y-92813333D01*
X51307619Y-92765714D01*
X51402857Y-92718095D01*
X51498095Y-92718095D01*
X51640952Y-92765714D01*
X52212380Y-93337142D01*
X52212380Y-92718095D01*
X50312380Y-89544285D02*
X50312380Y-90115714D01*
X50312380Y-89830000D02*
X49312380Y-89830000D01*
X49455238Y-89925238D01*
X49550476Y-90020476D01*
X49598095Y-90115714D01*
X52212380Y-110434285D02*
X51212380Y-110434285D01*
X51212380Y-110196190D01*
X51260000Y-110053333D01*
X51355238Y-109958095D01*
X51450476Y-109910476D01*
X51640952Y-109862857D01*
X51783809Y-109862857D01*
X51974285Y-109910476D01*
X52069523Y-109958095D01*
X52164761Y-110053333D01*
X52212380Y-110196190D01*
X52212380Y-110434285D01*
X51212380Y-109529523D02*
X51212380Y-108910476D01*
X51593333Y-109243809D01*
X51593333Y-109100952D01*
X51640952Y-109005714D01*
X51688571Y-108958095D01*
X51783809Y-108910476D01*
X52021904Y-108910476D01*
X52117142Y-108958095D01*
X52164761Y-109005714D01*
X52212380Y-109100952D01*
X52212380Y-109386666D01*
X52164761Y-109481904D01*
X52117142Y-109529523D01*
X52212380Y-107958095D02*
X52212380Y-108529523D01*
X52212380Y-108243809D02*
X51212380Y-108243809D01*
X51355238Y-108339047D01*
X51450476Y-108434285D01*
X51498095Y-108529523D01*
X50312380Y-104784285D02*
X50312380Y-105355714D01*
X50312380Y-105070000D02*
X49312380Y-105070000D01*
X49455238Y-105165238D01*
X49550476Y-105260476D01*
X49598095Y-105355714D01*
X52212380Y-125674285D02*
X51212380Y-125674285D01*
X51212380Y-125436190D01*
X51260000Y-125293333D01*
X51355238Y-125198095D01*
X51450476Y-125150476D01*
X51640952Y-125102857D01*
X51783809Y-125102857D01*
X51974285Y-125150476D01*
X52069523Y-125198095D01*
X52164761Y-125293333D01*
X52212380Y-125436190D01*
X52212380Y-125674285D01*
X51212380Y-124769523D02*
X51212380Y-124150476D01*
X51593333Y-124483809D01*
X51593333Y-124340952D01*
X51640952Y-124245714D01*
X51688571Y-124198095D01*
X51783809Y-124150476D01*
X52021904Y-124150476D01*
X52117142Y-124198095D01*
X52164761Y-124245714D01*
X52212380Y-124340952D01*
X52212380Y-124626666D01*
X52164761Y-124721904D01*
X52117142Y-124769523D01*
X51212380Y-123531428D02*
X51212380Y-123436190D01*
X51260000Y-123340952D01*
X51307619Y-123293333D01*
X51402857Y-123245714D01*
X51593333Y-123198095D01*
X51831428Y-123198095D01*
X52021904Y-123245714D01*
X52117142Y-123293333D01*
X52164761Y-123340952D01*
X52212380Y-123436190D01*
X52212380Y-123531428D01*
X52164761Y-123626666D01*
X52117142Y-123674285D01*
X52021904Y-123721904D01*
X51831428Y-123769523D01*
X51593333Y-123769523D01*
X51402857Y-123721904D01*
X51307619Y-123674285D01*
X51260000Y-123626666D01*
X51212380Y-123531428D01*
X50312380Y-120024285D02*
X50312380Y-120595714D01*
X50312380Y-120310000D02*
X49312380Y-120310000D01*
X49455238Y-120405238D01*
X49550476Y-120500476D01*
X49598095Y-120595714D01*
X52212380Y-140914285D02*
X51212380Y-140914285D01*
X51212380Y-140676190D01*
X51260000Y-140533333D01*
X51355238Y-140438095D01*
X51450476Y-140390476D01*
X51640952Y-140342857D01*
X51783809Y-140342857D01*
X51974285Y-140390476D01*
X52069523Y-140438095D01*
X52164761Y-140533333D01*
X52212380Y-140676190D01*
X52212380Y-140914285D01*
X51307619Y-139961904D02*
X51260000Y-139914285D01*
X51212380Y-139819047D01*
X51212380Y-139580952D01*
X51260000Y-139485714D01*
X51307619Y-139438095D01*
X51402857Y-139390476D01*
X51498095Y-139390476D01*
X51640952Y-139438095D01*
X52212380Y-140009523D01*
X52212380Y-139390476D01*
X52212380Y-138914285D02*
X52212380Y-138723809D01*
X52164761Y-138628571D01*
X52117142Y-138580952D01*
X51974285Y-138485714D01*
X51783809Y-138438095D01*
X51402857Y-138438095D01*
X51307619Y-138485714D01*
X51260000Y-138533333D01*
X51212380Y-138628571D01*
X51212380Y-138819047D01*
X51260000Y-138914285D01*
X51307619Y-138961904D01*
X51402857Y-139009523D01*
X51640952Y-139009523D01*
X51736190Y-138961904D01*
X51783809Y-138914285D01*
X51831428Y-138819047D01*
X51831428Y-138628571D01*
X51783809Y-138533333D01*
X51736190Y-138485714D01*
X51640952Y-138438095D01*
X50312380Y-135264285D02*
X50312380Y-135835714D01*
X50312380Y-135550000D02*
X49312380Y-135550000D01*
X49455238Y-135645238D01*
X49550476Y-135740476D01*
X49598095Y-135835714D01*
X52212380Y-156154285D02*
X51212380Y-156154285D01*
X51212380Y-155916190D01*
X51260000Y-155773333D01*
X51355238Y-155678095D01*
X51450476Y-155630476D01*
X51640952Y-155582857D01*
X51783809Y-155582857D01*
X51974285Y-155630476D01*
X52069523Y-155678095D01*
X52164761Y-155773333D01*
X52212380Y-155916190D01*
X52212380Y-156154285D01*
X51307619Y-155201904D02*
X51260000Y-155154285D01*
X51212380Y-155059047D01*
X51212380Y-154820952D01*
X51260000Y-154725714D01*
X51307619Y-154678095D01*
X51402857Y-154630476D01*
X51498095Y-154630476D01*
X51640952Y-154678095D01*
X52212380Y-155249523D01*
X52212380Y-154630476D01*
X51640952Y-154059047D02*
X51593333Y-154154285D01*
X51545714Y-154201904D01*
X51450476Y-154249523D01*
X51402857Y-154249523D01*
X51307619Y-154201904D01*
X51260000Y-154154285D01*
X51212380Y-154059047D01*
X51212380Y-153868571D01*
X51260000Y-153773333D01*
X51307619Y-153725714D01*
X51402857Y-153678095D01*
X51450476Y-153678095D01*
X51545714Y-153725714D01*
X51593333Y-153773333D01*
X51640952Y-153868571D01*
X51640952Y-154059047D01*
X51688571Y-154154285D01*
X51736190Y-154201904D01*
X51831428Y-154249523D01*
X52021904Y-154249523D01*
X52117142Y-154201904D01*
X52164761Y-154154285D01*
X52212380Y-154059047D01*
X52212380Y-153868571D01*
X52164761Y-153773333D01*
X52117142Y-153725714D01*
X52021904Y-153678095D01*
X51831428Y-153678095D01*
X51736190Y-153725714D01*
X51688571Y-153773333D01*
X51640952Y-153868571D01*
X50312380Y-150504285D02*
X50312380Y-151075714D01*
X50312380Y-150790000D02*
X49312380Y-150790000D01*
X49455238Y-150885238D01*
X49550476Y-150980476D01*
X49598095Y-151075714D01*
X52212380Y-171394285D02*
X51212380Y-171394285D01*
X51212380Y-171156190D01*
X51260000Y-171013333D01*
X51355238Y-170918095D01*
X51450476Y-170870476D01*
X51640952Y-170822857D01*
X51783809Y-170822857D01*
X51974285Y-170870476D01*
X52069523Y-170918095D01*
X52164761Y-171013333D01*
X52212380Y-171156190D01*
X52212380Y-171394285D01*
X51307619Y-170441904D02*
X51260000Y-170394285D01*
X51212380Y-170299047D01*
X51212380Y-170060952D01*
X51260000Y-169965714D01*
X51307619Y-169918095D01*
X51402857Y-169870476D01*
X51498095Y-169870476D01*
X51640952Y-169918095D01*
X52212380Y-170489523D01*
X52212380Y-169870476D01*
X51212380Y-169537142D02*
X51212380Y-168870476D01*
X52212380Y-169299047D01*
X50312380Y-165744285D02*
X50312380Y-166315714D01*
X50312380Y-166030000D02*
X49312380Y-166030000D01*
X49455238Y-166125238D01*
X49550476Y-166220476D01*
X49598095Y-166315714D01*
X52212380Y-186634285D02*
X51212380Y-186634285D01*
X51212380Y-186396190D01*
X51260000Y-186253333D01*
X51355238Y-186158095D01*
X51450476Y-186110476D01*
X51640952Y-186062857D01*
X51783809Y-186062857D01*
X51974285Y-186110476D01*
X52069523Y-186158095D01*
X52164761Y-186253333D01*
X52212380Y-186396190D01*
X52212380Y-186634285D01*
X51307619Y-185681904D02*
X51260000Y-185634285D01*
X51212380Y-185539047D01*
X51212380Y-185300952D01*
X51260000Y-185205714D01*
X51307619Y-185158095D01*
X51402857Y-185110476D01*
X51498095Y-185110476D01*
X51640952Y-185158095D01*
X52212380Y-185729523D01*
X52212380Y-185110476D01*
X51212380Y-184253333D02*
X51212380Y-184443809D01*
X51260000Y-184539047D01*
X51307619Y-184586666D01*
X51450476Y-184681904D01*
X51640952Y-184729523D01*
X52021904Y-184729523D01*
X52117142Y-184681904D01*
X52164761Y-184634285D01*
X52212380Y-184539047D01*
X52212380Y-184348571D01*
X52164761Y-184253333D01*
X52117142Y-184205714D01*
X52021904Y-184158095D01*
X51783809Y-184158095D01*
X51688571Y-184205714D01*
X51640952Y-184253333D01*
X51593333Y-184348571D01*
X51593333Y-184539047D01*
X51640952Y-184634285D01*
X51688571Y-184681904D01*
X51783809Y-184729523D01*
X50312380Y-180984285D02*
X50312380Y-181555714D01*
X50312380Y-181270000D02*
X49312380Y-181270000D01*
X49455238Y-181365238D01*
X49550476Y-181460476D01*
X49598095Y-181555714D01*
X52212380Y-201874285D02*
X51212380Y-201874285D01*
X51212380Y-201636190D01*
X51260000Y-201493333D01*
X51355238Y-201398095D01*
X51450476Y-201350476D01*
X51640952Y-201302857D01*
X51783809Y-201302857D01*
X51974285Y-201350476D01*
X52069523Y-201398095D01*
X52164761Y-201493333D01*
X52212380Y-201636190D01*
X52212380Y-201874285D01*
X51307619Y-200921904D02*
X51260000Y-200874285D01*
X51212380Y-200779047D01*
X51212380Y-200540952D01*
X51260000Y-200445714D01*
X51307619Y-200398095D01*
X51402857Y-200350476D01*
X51498095Y-200350476D01*
X51640952Y-200398095D01*
X52212380Y-200969523D01*
X52212380Y-200350476D01*
X51212380Y-199445714D02*
X51212380Y-199921904D01*
X51688571Y-199969523D01*
X51640952Y-199921904D01*
X51593333Y-199826666D01*
X51593333Y-199588571D01*
X51640952Y-199493333D01*
X51688571Y-199445714D01*
X51783809Y-199398095D01*
X52021904Y-199398095D01*
X52117142Y-199445714D01*
X52164761Y-199493333D01*
X52212380Y-199588571D01*
X52212380Y-199826666D01*
X52164761Y-199921904D01*
X52117142Y-199969523D01*
X50312380Y-196224285D02*
X50312380Y-196795714D01*
X50312380Y-196510000D02*
X49312380Y-196510000D01*
X49455238Y-196605238D01*
X49550476Y-196700476D01*
X49598095Y-196795714D01*
X54665714Y-207772380D02*
X54665714Y-206772380D01*
X54903809Y-206772380D01*
X55046666Y-206820000D01*
X55141904Y-206915238D01*
X55189523Y-207010476D01*
X55237142Y-207200952D01*
X55237142Y-207343809D01*
X55189523Y-207534285D01*
X55141904Y-207629523D01*
X55046666Y-207724761D01*
X54903809Y-207772380D01*
X54665714Y-207772380D01*
X55618095Y-206867619D02*
X55665714Y-206820000D01*
X55760952Y-206772380D01*
X55999047Y-206772380D01*
X56094285Y-206820000D01*
X56141904Y-206867619D01*
X56189523Y-206962857D01*
X56189523Y-207058095D01*
X56141904Y-207200952D01*
X55570476Y-207772380D01*
X56189523Y-207772380D01*
X57046666Y-207105714D02*
X57046666Y-207772380D01*
X56808571Y-206724761D02*
X56570476Y-207439047D01*
X57189523Y-207439047D01*
X52015714Y-209672380D02*
X51444285Y-209672380D01*
X51730000Y-209672380D02*
X51730000Y-208672380D01*
X51634761Y-208815238D01*
X51539523Y-208910476D01*
X51444285Y-208958095D01*
X69905714Y-207772380D02*
X69905714Y-206772380D01*
X70143809Y-206772380D01*
X70286666Y-206820000D01*
X70381904Y-206915238D01*
X70429523Y-207010476D01*
X70477142Y-207200952D01*
X70477142Y-207343809D01*
X70429523Y-207534285D01*
X70381904Y-207629523D01*
X70286666Y-207724761D01*
X70143809Y-207772380D01*
X69905714Y-207772380D01*
X70858095Y-206867619D02*
X70905714Y-206820000D01*
X71000952Y-206772380D01*
X71239047Y-206772380D01*
X71334285Y-206820000D01*
X71381904Y-206867619D01*
X71429523Y-206962857D01*
X71429523Y-207058095D01*
X71381904Y-207200952D01*
X70810476Y-207772380D01*
X71429523Y-207772380D01*
X71762857Y-206772380D02*
X72381904Y-206772380D01*
X72048571Y-207153333D01*
X72191428Y-207153333D01*
X72286666Y-207200952D01*
X72334285Y-207248571D01*
X72381904Y-207343809D01*
X72381904Y-207581904D01*
X72334285Y-207677142D01*
X72286666Y-207724761D01*
X72191428Y-207772380D01*
X71905714Y-207772380D01*
X71810476Y-207724761D01*
X71762857Y-207677142D01*
X67255714Y-209672380D02*
X66684285Y-209672380D01*
X66970000Y-209672380D02*
X66970000Y-208672380D01*
X66874761Y-208815238D01*
X66779523Y-208910476D01*
X66684285Y-208958095D01*
X85145714Y-207772380D02*
X85145714Y-206772380D01*
X85383809Y-206772380D01*
X85526666Y-206820000D01*
X85621904Y-206915238D01*
X85669523Y-207010476D01*
X85717142Y-207200952D01*
X85717142Y-207343809D01*
X85669523Y-207534285D01*
X85621904Y-207629523D01*
X85526666Y-207724761D01*
X85383809Y-207772380D01*
X85145714Y-207772380D01*
X86098095Y-206867619D02*
X86145714Y-206820000D01*
X86240952Y-206772380D01*
X86479047Y-206772380D01*
X86574285Y-206820000D01*
X86621904Y-206867619D01*
X86669523Y-206962857D01*
X86669523Y-207058095D01*
X86621904Y-207200952D01*
X86050476Y-207772380D01*
X86669523Y-207772380D01*
X87050476Y-206867619D02*
X87098095Y-206820000D01*
X87193333Y-206772380D01*
X87431428Y-206772380D01*
X87526666Y-206820000D01*
X87574285Y-206867619D01*
X87621904Y-206962857D01*
X87621904Y-207058095D01*
X87574285Y-207200952D01*
X87002857Y-207772380D01*
X87621904Y-207772380D01*
X82495714Y-209672380D02*
X81924285Y-209672380D01*
X82210000Y-209672380D02*
X82210000Y-208672380D01*
X82114761Y-208815238D01*
X82019523Y-208910476D01*
X81924285Y-208958095D01*
X100385714Y-207772380D02*
X100385714Y-206772380D01*
X100623809Y-206772380D01*
X100766666Y-206820000D01*
X100861904Y-206915238D01*
X100909523Y-207010476D01*
X100957142Y-207200952D01*
X100957142Y-207343809D01*
X100909523Y-207534285D01*
X100861904Y-207629523D01*
X100766666Y-207724761D01*
X100623809Y-207772380D01*
X100385714Y-207772380D01*
X101338095Y-206867619D02*
X101385714Y-206820000D01*
X101480952Y-206772380D01*
X101719047Y-206772380D01*
X101814285Y-206820000D01*
X101861904Y-206867619D01*
X101909523Y-206962857D01*
X101909523Y-207058095D01*
X101861904Y-207200952D01*
X101290476Y-207772380D01*
X101909523Y-207772380D01*
X102861904Y-207772380D02*
X102290476Y-207772380D01*
X102576190Y-207772380D02*
X102576190Y-206772380D01*
X102480952Y-206915238D01*
X102385714Y-207010476D01*
X102290476Y-207058095D01*
X97735714Y-209672380D02*
X97164285Y-209672380D01*
X97450000Y-209672380D02*
X97450000Y-208672380D01*
X97354761Y-208815238D01*
X97259523Y-208910476D01*
X97164285Y-208958095D01*
X115625714Y-207772380D02*
X115625714Y-206772380D01*
X115863809Y-206772380D01*
X116006666Y-206820000D01*
X116101904Y-206915238D01*
X116149523Y-207010476D01*
X116197142Y-207200952D01*
X116197142Y-207343809D01*
X116149523Y-207534285D01*
X116101904Y-207629523D01*
X116006666Y-207724761D01*
X115863809Y-207772380D01*
X115625714Y-207772380D01*
X116578095Y-206867619D02*
X116625714Y-206820000D01*
X116720952Y-206772380D01*
X116959047Y-206772380D01*
X117054285Y-206820000D01*
X117101904Y-206867619D01*
X117149523Y-206962857D01*
X117149523Y-207058095D01*
X117101904Y-207200952D01*
X116530476Y-207772380D01*
X117149523Y-207772380D01*
X117768571Y-206772380D02*
X117863809Y-206772380D01*
X117959047Y-206820000D01*
X118006666Y-206867619D01*
X118054285Y-206962857D01*
X118101904Y-207153333D01*
X118101904Y-207391428D01*
X118054285Y-207581904D01*
X118006666Y-207677142D01*
X117959047Y-207724761D01*
X117863809Y-207772380D01*
X117768571Y-207772380D01*
X117673333Y-207724761D01*
X117625714Y-207677142D01*
X117578095Y-207581904D01*
X117530476Y-207391428D01*
X117530476Y-207153333D01*
X117578095Y-206962857D01*
X117625714Y-206867619D01*
X117673333Y-206820000D01*
X117768571Y-206772380D01*
X112975714Y-209672380D02*
X112404285Y-209672380D01*
X112690000Y-209672380D02*
X112690000Y-208672380D01*
X112594761Y-208815238D01*
X112499523Y-208910476D01*
X112404285Y-208958095D01*
X130865714Y-207772380D02*
X130865714Y-206772380D01*
X131103809Y-206772380D01*
X131246666Y-206820000D01*
X131341904Y-206915238D01*
X131389523Y-207010476D01*
X131437142Y-207200952D01*
X131437142Y-207343809D01*
X131389523Y-207534285D01*
X131341904Y-207629523D01*
X131246666Y-207724761D01*
X131103809Y-207772380D01*
X130865714Y-207772380D01*
X132389523Y-207772380D02*
X131818095Y-207772380D01*
X132103809Y-207772380D02*
X132103809Y-206772380D01*
X132008571Y-206915238D01*
X131913333Y-207010476D01*
X131818095Y-207058095D01*
X132865714Y-207772380D02*
X133056190Y-207772380D01*
X133151428Y-207724761D01*
X133199047Y-207677142D01*
X133294285Y-207534285D01*
X133341904Y-207343809D01*
X133341904Y-206962857D01*
X133294285Y-206867619D01*
X133246666Y-206820000D01*
X133151428Y-206772380D01*
X132960952Y-206772380D01*
X132865714Y-206820000D01*
X132818095Y-206867619D01*
X132770476Y-206962857D01*
X132770476Y-207200952D01*
X132818095Y-207296190D01*
X132865714Y-207343809D01*
X132960952Y-207391428D01*
X133151428Y-207391428D01*
X133246666Y-207343809D01*
X133294285Y-207296190D01*
X133341904Y-207200952D01*
X128215714Y-209672380D02*
X127644285Y-209672380D01*
X127930000Y-209672380D02*
X127930000Y-208672380D01*
X127834761Y-208815238D01*
X127739523Y-208910476D01*
X127644285Y-208958095D01*
X136652380Y-201874285D02*
X135652380Y-201874285D01*
X135652380Y-201636190D01*
X135700000Y-201493333D01*
X135795238Y-201398095D01*
X135890476Y-201350476D01*
X136080952Y-201302857D01*
X136223809Y-201302857D01*
X136414285Y-201350476D01*
X136509523Y-201398095D01*
X136604761Y-201493333D01*
X136652380Y-201636190D01*
X136652380Y-201874285D01*
X136652380Y-200350476D02*
X136652380Y-200921904D01*
X136652380Y-200636190D02*
X135652380Y-200636190D01*
X135795238Y-200731428D01*
X135890476Y-200826666D01*
X135938095Y-200921904D01*
X136080952Y-199779047D02*
X136033333Y-199874285D01*
X135985714Y-199921904D01*
X135890476Y-199969523D01*
X135842857Y-199969523D01*
X135747619Y-199921904D01*
X135700000Y-199874285D01*
X135652380Y-199779047D01*
X135652380Y-199588571D01*
X135700000Y-199493333D01*
X135747619Y-199445714D01*
X135842857Y-199398095D01*
X135890476Y-199398095D01*
X135985714Y-199445714D01*
X136033333Y-199493333D01*
X136080952Y-199588571D01*
X136080952Y-199779047D01*
X136128571Y-199874285D01*
X136176190Y-199921904D01*
X136271428Y-199969523D01*
X136461904Y-199969523D01*
X136557142Y-199921904D01*
X136604761Y-199874285D01*
X136652380Y-199779047D01*
X136652380Y-199588571D01*
X136604761Y-199493333D01*
X136557142Y-199445714D01*
X136461904Y-199398095D01*
X136271428Y-199398095D01*
X136176190Y-199445714D01*
X136128571Y-199493333D01*
X136080952Y-199588571D01*
X138552380Y-204524285D02*
X138552380Y-205095714D01*
X138552380Y-204810000D02*
X137552380Y-204810000D01*
X137695238Y-204905238D01*
X137790476Y-205000476D01*
X137838095Y-205095714D01*
X136652380Y-186634285D02*
X135652380Y-186634285D01*
X135652380Y-186396190D01*
X135700000Y-186253333D01*
X135795238Y-186158095D01*
X135890476Y-186110476D01*
X136080952Y-186062857D01*
X136223809Y-186062857D01*
X136414285Y-186110476D01*
X136509523Y-186158095D01*
X136604761Y-186253333D01*
X136652380Y-186396190D01*
X136652380Y-186634285D01*
X136652380Y-185110476D02*
X136652380Y-185681904D01*
X136652380Y-185396190D02*
X135652380Y-185396190D01*
X135795238Y-185491428D01*
X135890476Y-185586666D01*
X135938095Y-185681904D01*
X135652380Y-184777142D02*
X135652380Y-184110476D01*
X136652380Y-184539047D01*
X138552380Y-189284285D02*
X138552380Y-189855714D01*
X138552380Y-189570000D02*
X137552380Y-189570000D01*
X137695238Y-189665238D01*
X137790476Y-189760476D01*
X137838095Y-189855714D01*
X136652380Y-171394285D02*
X135652380Y-171394285D01*
X135652380Y-171156190D01*
X135700000Y-171013333D01*
X135795238Y-170918095D01*
X135890476Y-170870476D01*
X136080952Y-170822857D01*
X136223809Y-170822857D01*
X136414285Y-170870476D01*
X136509523Y-170918095D01*
X136604761Y-171013333D01*
X136652380Y-171156190D01*
X136652380Y-171394285D01*
X136652380Y-169870476D02*
X136652380Y-170441904D01*
X136652380Y-170156190D02*
X135652380Y-170156190D01*
X135795238Y-170251428D01*
X135890476Y-170346666D01*
X135938095Y-170441904D01*
X135652380Y-169013333D02*
X135652380Y-169203809D01*
X135700000Y-169299047D01*
X135747619Y-169346666D01*
X135890476Y-169441904D01*
X136080952Y-169489523D01*
X136461904Y-169489523D01*
X136557142Y-169441904D01*
X136604761Y-169394285D01*
X136652380Y-169299047D01*
X136652380Y-169108571D01*
X136604761Y-169013333D01*
X136557142Y-168965714D01*
X136461904Y-168918095D01*
X136223809Y-168918095D01*
X136128571Y-168965714D01*
X136080952Y-169013333D01*
X136033333Y-169108571D01*
X136033333Y-169299047D01*
X136080952Y-169394285D01*
X136128571Y-169441904D01*
X136223809Y-169489523D01*
X138552380Y-174044285D02*
X138552380Y-174615714D01*
X138552380Y-174330000D02*
X137552380Y-174330000D01*
X137695238Y-174425238D01*
X137790476Y-174520476D01*
X137838095Y-174615714D01*
X136652380Y-156154285D02*
X135652380Y-156154285D01*
X135652380Y-155916190D01*
X135700000Y-155773333D01*
X135795238Y-155678095D01*
X135890476Y-155630476D01*
X136080952Y-155582857D01*
X136223809Y-155582857D01*
X136414285Y-155630476D01*
X136509523Y-155678095D01*
X136604761Y-155773333D01*
X136652380Y-155916190D01*
X136652380Y-156154285D01*
X136652380Y-154630476D02*
X136652380Y-155201904D01*
X136652380Y-154916190D02*
X135652380Y-154916190D01*
X135795238Y-155011428D01*
X135890476Y-155106666D01*
X135938095Y-155201904D01*
X135652380Y-153725714D02*
X135652380Y-154201904D01*
X136128571Y-154249523D01*
X136080952Y-154201904D01*
X136033333Y-154106666D01*
X136033333Y-153868571D01*
X136080952Y-153773333D01*
X136128571Y-153725714D01*
X136223809Y-153678095D01*
X136461904Y-153678095D01*
X136557142Y-153725714D01*
X136604761Y-153773333D01*
X136652380Y-153868571D01*
X136652380Y-154106666D01*
X136604761Y-154201904D01*
X136557142Y-154249523D01*
X138552380Y-158804285D02*
X138552380Y-159375714D01*
X138552380Y-159090000D02*
X137552380Y-159090000D01*
X137695238Y-159185238D01*
X137790476Y-159280476D01*
X137838095Y-159375714D01*
X136652380Y-140914285D02*
X135652380Y-140914285D01*
X135652380Y-140676190D01*
X135700000Y-140533333D01*
X135795238Y-140438095D01*
X135890476Y-140390476D01*
X136080952Y-140342857D01*
X136223809Y-140342857D01*
X136414285Y-140390476D01*
X136509523Y-140438095D01*
X136604761Y-140533333D01*
X136652380Y-140676190D01*
X136652380Y-140914285D01*
X136652380Y-139390476D02*
X136652380Y-139961904D01*
X136652380Y-139676190D02*
X135652380Y-139676190D01*
X135795238Y-139771428D01*
X135890476Y-139866666D01*
X135938095Y-139961904D01*
X135985714Y-138533333D02*
X136652380Y-138533333D01*
X135604761Y-138771428D02*
X136319047Y-139009523D01*
X136319047Y-138390476D01*
X138552380Y-143564285D02*
X138552380Y-144135714D01*
X138552380Y-143850000D02*
X137552380Y-143850000D01*
X137695238Y-143945238D01*
X137790476Y-144040476D01*
X137838095Y-144135714D01*
X136652380Y-125674285D02*
X135652380Y-125674285D01*
X135652380Y-125436190D01*
X135700000Y-125293333D01*
X135795238Y-125198095D01*
X135890476Y-125150476D01*
X136080952Y-125102857D01*
X136223809Y-125102857D01*
X136414285Y-125150476D01*
X136509523Y-125198095D01*
X136604761Y-125293333D01*
X136652380Y-125436190D01*
X136652380Y-125674285D01*
X136652380Y-124150476D02*
X136652380Y-124721904D01*
X136652380Y-124436190D02*
X135652380Y-124436190D01*
X135795238Y-124531428D01*
X135890476Y-124626666D01*
X135938095Y-124721904D01*
X135652380Y-123817142D02*
X135652380Y-123198095D01*
X136033333Y-123531428D01*
X136033333Y-123388571D01*
X136080952Y-123293333D01*
X136128571Y-123245714D01*
X136223809Y-123198095D01*
X136461904Y-123198095D01*
X136557142Y-123245714D01*
X136604761Y-123293333D01*
X136652380Y-123388571D01*
X136652380Y-123674285D01*
X136604761Y-123769523D01*
X136557142Y-123817142D01*
X138552380Y-128324285D02*
X138552380Y-128895714D01*
X138552380Y-128610000D02*
X137552380Y-128610000D01*
X137695238Y-128705238D01*
X137790476Y-128800476D01*
X137838095Y-128895714D01*
X136652380Y-110434285D02*
X135652380Y-110434285D01*
X135652380Y-110196190D01*
X135700000Y-110053333D01*
X135795238Y-109958095D01*
X135890476Y-109910476D01*
X136080952Y-109862857D01*
X136223809Y-109862857D01*
X136414285Y-109910476D01*
X136509523Y-109958095D01*
X136604761Y-110053333D01*
X136652380Y-110196190D01*
X136652380Y-110434285D01*
X136652380Y-108910476D02*
X136652380Y-109481904D01*
X136652380Y-109196190D02*
X135652380Y-109196190D01*
X135795238Y-109291428D01*
X135890476Y-109386666D01*
X135938095Y-109481904D01*
X135747619Y-108529523D02*
X135700000Y-108481904D01*
X135652380Y-108386666D01*
X135652380Y-108148571D01*
X135700000Y-108053333D01*
X135747619Y-108005714D01*
X135842857Y-107958095D01*
X135938095Y-107958095D01*
X136080952Y-108005714D01*
X136652380Y-108577142D01*
X136652380Y-107958095D01*
X138552380Y-113084285D02*
X138552380Y-113655714D01*
X138552380Y-113370000D02*
X137552380Y-113370000D01*
X137695238Y-113465238D01*
X137790476Y-113560476D01*
X137838095Y-113655714D01*
X136652380Y-95194285D02*
X135652380Y-95194285D01*
X135652380Y-94956190D01*
X135700000Y-94813333D01*
X135795238Y-94718095D01*
X135890476Y-94670476D01*
X136080952Y-94622857D01*
X136223809Y-94622857D01*
X136414285Y-94670476D01*
X136509523Y-94718095D01*
X136604761Y-94813333D01*
X136652380Y-94956190D01*
X136652380Y-95194285D01*
X136652380Y-93670476D02*
X136652380Y-94241904D01*
X136652380Y-93956190D02*
X135652380Y-93956190D01*
X135795238Y-94051428D01*
X135890476Y-94146666D01*
X135938095Y-94241904D01*
X136652380Y-92718095D02*
X136652380Y-93289523D01*
X136652380Y-93003809D02*
X135652380Y-93003809D01*
X135795238Y-93099047D01*
X135890476Y-93194285D01*
X135938095Y-93289523D01*
X138552380Y-97844285D02*
X138552380Y-98415714D01*
X138552380Y-98130000D02*
X137552380Y-98130000D01*
X137695238Y-98225238D01*
X137790476Y-98320476D01*
X137838095Y-98415714D01*
X136652380Y-79954285D02*
X135652380Y-79954285D01*
X135652380Y-79716190D01*
X135700000Y-79573333D01*
X135795238Y-79478095D01*
X135890476Y-79430476D01*
X136080952Y-79382857D01*
X136223809Y-79382857D01*
X136414285Y-79430476D01*
X136509523Y-79478095D01*
X136604761Y-79573333D01*
X136652380Y-79716190D01*
X136652380Y-79954285D01*
X136652380Y-78430476D02*
X136652380Y-79001904D01*
X136652380Y-78716190D02*
X135652380Y-78716190D01*
X135795238Y-78811428D01*
X135890476Y-78906666D01*
X135938095Y-79001904D01*
X135652380Y-77811428D02*
X135652380Y-77716190D01*
X135700000Y-77620952D01*
X135747619Y-77573333D01*
X135842857Y-77525714D01*
X136033333Y-77478095D01*
X136271428Y-77478095D01*
X136461904Y-77525714D01*
X136557142Y-77573333D01*
X136604761Y-77620952D01*
X136652380Y-77716190D01*
X136652380Y-77811428D01*
X136604761Y-77906666D01*
X136557142Y-77954285D01*
X136461904Y-78001904D01*
X136271428Y-78049523D01*
X136033333Y-78049523D01*
X135842857Y-78001904D01*
X135747619Y-77954285D01*
X135700000Y-77906666D01*
X135652380Y-77811428D01*
X138552380Y-82604285D02*
X138552380Y-83175714D01*
X138552380Y-82890000D02*
X137552380Y-82890000D01*
X137695238Y-82985238D01*
X137790476Y-83080476D01*
X137838095Y-83175714D01*
X136652380Y-64238095D02*
X135652380Y-64238095D01*
X135652380Y-64000000D01*
X135700000Y-63857142D01*
X135795238Y-63761904D01*
X135890476Y-63714285D01*
X136080952Y-63666666D01*
X136223809Y-63666666D01*
X136414285Y-63714285D01*
X136509523Y-63761904D01*
X136604761Y-63857142D01*
X136652380Y-64000000D01*
X136652380Y-64238095D01*
X136652380Y-63190476D02*
X136652380Y-63000000D01*
X136604761Y-62904761D01*
X136557142Y-62857142D01*
X136414285Y-62761904D01*
X136223809Y-62714285D01*
X135842857Y-62714285D01*
X135747619Y-62761904D01*
X135700000Y-62809523D01*
X135652380Y-62904761D01*
X135652380Y-63095238D01*
X135700000Y-63190476D01*
X135747619Y-63238095D01*
X135842857Y-63285714D01*
X136080952Y-63285714D01*
X136176190Y-63238095D01*
X136223809Y-63190476D01*
X136271428Y-63095238D01*
X136271428Y-62904761D01*
X136223809Y-62809523D01*
X136176190Y-62761904D01*
X136080952Y-62714285D01*
X138552380Y-67364285D02*
X138552380Y-67935714D01*
X138552380Y-67650000D02*
X137552380Y-67650000D01*
X137695238Y-67745238D01*
X137790476Y-67840476D01*
X137838095Y-67935714D01*
X136652380Y-48998095D02*
X135652380Y-48998095D01*
X135652380Y-48760000D01*
X135700000Y-48617142D01*
X135795238Y-48521904D01*
X135890476Y-48474285D01*
X136080952Y-48426666D01*
X136223809Y-48426666D01*
X136414285Y-48474285D01*
X136509523Y-48521904D01*
X136604761Y-48617142D01*
X136652380Y-48760000D01*
X136652380Y-48998095D01*
X136080952Y-47855238D02*
X136033333Y-47950476D01*
X135985714Y-47998095D01*
X135890476Y-48045714D01*
X135842857Y-48045714D01*
X135747619Y-47998095D01*
X135700000Y-47950476D01*
X135652380Y-47855238D01*
X135652380Y-47664761D01*
X135700000Y-47569523D01*
X135747619Y-47521904D01*
X135842857Y-47474285D01*
X135890476Y-47474285D01*
X135985714Y-47521904D01*
X136033333Y-47569523D01*
X136080952Y-47664761D01*
X136080952Y-47855238D01*
X136128571Y-47950476D01*
X136176190Y-47998095D01*
X136271428Y-48045714D01*
X136461904Y-48045714D01*
X136557142Y-47998095D01*
X136604761Y-47950476D01*
X136652380Y-47855238D01*
X136652380Y-47664761D01*
X136604761Y-47569523D01*
X136557142Y-47521904D01*
X136461904Y-47474285D01*
X136271428Y-47474285D01*
X136176190Y-47521904D01*
X136128571Y-47569523D01*
X136080952Y-47664761D01*
X138552380Y-52124285D02*
X138552380Y-52695714D01*
X138552380Y-52410000D02*
X137552380Y-52410000D01*
X137695238Y-52505238D01*
X137790476Y-52600476D01*
X137838095Y-52695714D01*
X136652380Y-33758095D02*
X135652380Y-33758095D01*
X135652380Y-33520000D01*
X135700000Y-33377142D01*
X135795238Y-33281904D01*
X135890476Y-33234285D01*
X136080952Y-33186666D01*
X136223809Y-33186666D01*
X136414285Y-33234285D01*
X136509523Y-33281904D01*
X136604761Y-33377142D01*
X136652380Y-33520000D01*
X136652380Y-33758095D01*
X135652380Y-32853333D02*
X135652380Y-32186666D01*
X136652380Y-32615238D01*
X138552380Y-36884285D02*
X138552380Y-37455714D01*
X138552380Y-37170000D02*
X137552380Y-37170000D01*
X137695238Y-37265238D01*
X137790476Y-37360476D01*
X137838095Y-37455714D01*
X131341904Y-29352380D02*
X131341904Y-28352380D01*
X131580000Y-28352380D01*
X131722857Y-28400000D01*
X131818095Y-28495238D01*
X131865714Y-28590476D01*
X131913333Y-28780952D01*
X131913333Y-28923809D01*
X131865714Y-29114285D01*
X131818095Y-29209523D01*
X131722857Y-29304761D01*
X131580000Y-29352380D01*
X131341904Y-29352380D01*
X132770476Y-28352380D02*
X132580000Y-28352380D01*
X132484761Y-28400000D01*
X132437142Y-28447619D01*
X132341904Y-28590476D01*
X132294285Y-28780952D01*
X132294285Y-29161904D01*
X132341904Y-29257142D01*
X132389523Y-29304761D01*
X132484761Y-29352380D01*
X132675238Y-29352380D01*
X132770476Y-29304761D01*
X132818095Y-29257142D01*
X132865714Y-29161904D01*
X132865714Y-28923809D01*
X132818095Y-28828571D01*
X132770476Y-28780952D01*
X132675238Y-28733333D01*
X132484761Y-28733333D01*
X132389523Y-28780952D01*
X132341904Y-28828571D01*
X132294285Y-28923809D01*
X136515714Y-27452380D02*
X135944285Y-27452380D01*
X136230000Y-27452380D02*
X136230000Y-26452380D01*
X136134761Y-26595238D01*
X136039523Y-26690476D01*
X135944285Y-26738095D01*
X116101904Y-29352380D02*
X116101904Y-28352380D01*
X116340000Y-28352380D01*
X116482857Y-28400000D01*
X116578095Y-28495238D01*
X116625714Y-28590476D01*
X116673333Y-28780952D01*
X116673333Y-28923809D01*
X116625714Y-29114285D01*
X116578095Y-29209523D01*
X116482857Y-29304761D01*
X116340000Y-29352380D01*
X116101904Y-29352380D01*
X117578095Y-28352380D02*
X117101904Y-28352380D01*
X117054285Y-28828571D01*
X117101904Y-28780952D01*
X117197142Y-28733333D01*
X117435238Y-28733333D01*
X117530476Y-28780952D01*
X117578095Y-28828571D01*
X117625714Y-28923809D01*
X117625714Y-29161904D01*
X117578095Y-29257142D01*
X117530476Y-29304761D01*
X117435238Y-29352380D01*
X117197142Y-29352380D01*
X117101904Y-29304761D01*
X117054285Y-29257142D01*
X121275714Y-27452380D02*
X120704285Y-27452380D01*
X120990000Y-27452380D02*
X120990000Y-26452380D01*
X120894761Y-26595238D01*
X120799523Y-26690476D01*
X120704285Y-26738095D01*
X100861904Y-29352380D02*
X100861904Y-28352380D01*
X101100000Y-28352380D01*
X101242857Y-28400000D01*
X101338095Y-28495238D01*
X101385714Y-28590476D01*
X101433333Y-28780952D01*
X101433333Y-28923809D01*
X101385714Y-29114285D01*
X101338095Y-29209523D01*
X101242857Y-29304761D01*
X101100000Y-29352380D01*
X100861904Y-29352380D01*
X102290476Y-28685714D02*
X102290476Y-29352380D01*
X102052380Y-28304761D02*
X101814285Y-29019047D01*
X102433333Y-29019047D01*
X106035714Y-27452380D02*
X105464285Y-27452380D01*
X105750000Y-27452380D02*
X105750000Y-26452380D01*
X105654761Y-26595238D01*
X105559523Y-26690476D01*
X105464285Y-26738095D01*
X85621904Y-29352380D02*
X85621904Y-28352380D01*
X85860000Y-28352380D01*
X86002857Y-28400000D01*
X86098095Y-28495238D01*
X86145714Y-28590476D01*
X86193333Y-28780952D01*
X86193333Y-28923809D01*
X86145714Y-29114285D01*
X86098095Y-29209523D01*
X86002857Y-29304761D01*
X85860000Y-29352380D01*
X85621904Y-29352380D01*
X86526666Y-28352380D02*
X87145714Y-28352380D01*
X86812380Y-28733333D01*
X86955238Y-28733333D01*
X87050476Y-28780952D01*
X87098095Y-28828571D01*
X87145714Y-28923809D01*
X87145714Y-29161904D01*
X87098095Y-29257142D01*
X87050476Y-29304761D01*
X86955238Y-29352380D01*
X86669523Y-29352380D01*
X86574285Y-29304761D01*
X86526666Y-29257142D01*
X90795714Y-27452380D02*
X90224285Y-27452380D01*
X90510000Y-27452380D02*
X90510000Y-26452380D01*
X90414761Y-26595238D01*
X90319523Y-26690476D01*
X90224285Y-26738095D01*
X70381904Y-29352380D02*
X70381904Y-28352380D01*
X70620000Y-28352380D01*
X70762857Y-28400000D01*
X70858095Y-28495238D01*
X70905714Y-28590476D01*
X70953333Y-28780952D01*
X70953333Y-28923809D01*
X70905714Y-29114285D01*
X70858095Y-29209523D01*
X70762857Y-29304761D01*
X70620000Y-29352380D01*
X70381904Y-29352380D01*
X71334285Y-28447619D02*
X71381904Y-28400000D01*
X71477142Y-28352380D01*
X71715238Y-28352380D01*
X71810476Y-28400000D01*
X71858095Y-28447619D01*
X71905714Y-28542857D01*
X71905714Y-28638095D01*
X71858095Y-28780952D01*
X71286666Y-29352380D01*
X71905714Y-29352380D01*
X75555714Y-27452380D02*
X74984285Y-27452380D01*
X75270000Y-27452380D02*
X75270000Y-26452380D01*
X75174761Y-26595238D01*
X75079523Y-26690476D01*
X74984285Y-26738095D01*
M02*
