G04 #@! TF.GenerationSoftware,KiCad,Pcbnew,(5.1.5)-3*
G04 #@! TF.CreationDate,2020-10-28T14:25:37+01:00*
G04 #@! TF.ProjectId,7segment,37736567-6d65-46e7-942e-6b696361645f,rev?*
G04 #@! TF.SameCoordinates,Original*
G04 #@! TF.FileFunction,Legend,Bot*
G04 #@! TF.FilePolarity,Positive*
%FSLAX46Y46*%
G04 Gerber Fmt 4.6, Leading zero omitted, Abs format (unit mm)*
G04 Created by KiCad (PCBNEW (5.1.5)-3) date 2020-10-28 14:25:37*
%MOMM*%
%LPD*%
G04 APERTURE LIST*
%ADD10C,0.150000*%
G04 APERTURE END LIST*
D10*
X140443928Y-22312380D02*
X140253452Y-22312380D01*
X140158214Y-22360000D01*
X140062976Y-22455238D01*
X140015357Y-22645714D01*
X140015357Y-22979047D01*
X140062976Y-23169523D01*
X140158214Y-23264761D01*
X140253452Y-23312380D01*
X140443928Y-23312380D01*
X140539166Y-23264761D01*
X140634404Y-23169523D01*
X140682023Y-22979047D01*
X140682023Y-22645714D01*
X140634404Y-22455238D01*
X140539166Y-22360000D01*
X140443928Y-22312380D01*
X139586785Y-22312380D02*
X139586785Y-23121904D01*
X139539166Y-23217142D01*
X139491547Y-23264761D01*
X139396309Y-23312380D01*
X139205833Y-23312380D01*
X139110595Y-23264761D01*
X139062976Y-23217142D01*
X139015357Y-23121904D01*
X139015357Y-22312380D01*
X138682023Y-22312380D02*
X138110595Y-22312380D01*
X138396309Y-23312380D02*
X138396309Y-22312380D01*
X48182738Y-24852380D02*
X48658928Y-24852380D01*
X48706547Y-25328571D01*
X48658928Y-25280952D01*
X48563690Y-25233333D01*
X48325595Y-25233333D01*
X48230357Y-25280952D01*
X48182738Y-25328571D01*
X48135119Y-25423809D01*
X48135119Y-25661904D01*
X48182738Y-25757142D01*
X48230357Y-25804761D01*
X48325595Y-25852380D01*
X48563690Y-25852380D01*
X48658928Y-25804761D01*
X48706547Y-25757142D01*
X47849404Y-24852380D02*
X47516071Y-25852380D01*
X47182738Y-24852380D01*
X49373214Y-19820000D02*
X49468452Y-19772380D01*
X49611309Y-19772380D01*
X49754166Y-19820000D01*
X49849404Y-19915238D01*
X49897023Y-20010476D01*
X49944642Y-20200952D01*
X49944642Y-20343809D01*
X49897023Y-20534285D01*
X49849404Y-20629523D01*
X49754166Y-20724761D01*
X49611309Y-20772380D01*
X49516071Y-20772380D01*
X49373214Y-20724761D01*
X49325595Y-20677142D01*
X49325595Y-20343809D01*
X49516071Y-20343809D01*
X48897023Y-20772380D02*
X48897023Y-19772380D01*
X48325595Y-20772380D01*
X48325595Y-19772380D01*
X47849404Y-20772380D02*
X47849404Y-19772380D01*
X47611309Y-19772380D01*
X47468452Y-19820000D01*
X47373214Y-19915238D01*
X47325595Y-20010476D01*
X47277976Y-20200952D01*
X47277976Y-20343809D01*
X47325595Y-20534285D01*
X47373214Y-20629523D01*
X47468452Y-20724761D01*
X47611309Y-20772380D01*
X47849404Y-20772380D01*
X48373214Y-23312380D02*
X48373214Y-22312380D01*
X47897023Y-23312380D02*
X47897023Y-22312380D01*
X47325595Y-23312380D01*
X47325595Y-22312380D01*
X140158214Y-24852380D02*
X140634404Y-24852380D01*
X140682023Y-25328571D01*
X140634404Y-25280952D01*
X140539166Y-25233333D01*
X140301071Y-25233333D01*
X140205833Y-25280952D01*
X140158214Y-25328571D01*
X140110595Y-25423809D01*
X140110595Y-25661904D01*
X140158214Y-25757142D01*
X140205833Y-25804761D01*
X140301071Y-25852380D01*
X140539166Y-25852380D01*
X140634404Y-25804761D01*
X140682023Y-25757142D01*
X139824880Y-24852380D02*
X139491547Y-25852380D01*
X139158214Y-24852380D01*
X140110595Y-19820000D02*
X140205833Y-19772380D01*
X140348690Y-19772380D01*
X140491547Y-19820000D01*
X140586785Y-19915238D01*
X140634404Y-20010476D01*
X140682023Y-20200952D01*
X140682023Y-20343809D01*
X140634404Y-20534285D01*
X140586785Y-20629523D01*
X140491547Y-20724761D01*
X140348690Y-20772380D01*
X140253452Y-20772380D01*
X140110595Y-20724761D01*
X140062976Y-20677142D01*
X140062976Y-20343809D01*
X140253452Y-20343809D01*
X139634404Y-20772380D02*
X139634404Y-19772380D01*
X139062976Y-20772380D01*
X139062976Y-19772380D01*
X138586785Y-20772380D02*
X138586785Y-19772380D01*
X138348690Y-19772380D01*
X138205833Y-19820000D01*
X138110595Y-19915238D01*
X138062976Y-20010476D01*
X138015357Y-20200952D01*
X138015357Y-20343809D01*
X138062976Y-20534285D01*
X138110595Y-20629523D01*
X138205833Y-20724761D01*
X138348690Y-20772380D01*
X138586785Y-20772380D01*
M02*
